<svg width="454" height="402" viewBox="0 0 454 402" fill="none" xmlns="http://www.w3.org/2000/svg">
<rect y="217" width="265" height="185" rx="30" fill="white"/>
<rect x="78" width="190" height="190" rx="30" fill="white"/>
<rect x="16" y="233" width="233" height="153" rx="29" stroke="#D4D0EB" stroke-width="2" stroke-dasharray="10 10"/>
<g filter="url(#filter0_d_412_100)">
<rect x="228" y="106" width="200" height="200" rx="30" fill="white"/>
</g>
<circle cx="132.5" cy="278.5" r="27.5" fill="#157CFF"/>
<path d="M130.606 286.26V269.854H133.39V286.26H130.606ZM123.795 279.449V276.665H140.202V279.449H123.795Z" fill="white"/>
<path d="M76.3174 339H74.0259C74.0259 338.746 73.1755 337.407 71.4746 334.983C69.6934 332.429 68.679 330.681 68.4316 329.741H68.2832C68.4378 331.096 68.5151 332.32 68.5151 333.415C68.5151 334.943 68.5584 336.804 68.645 339H66.3628C66.4556 337.083 66.502 334.977 66.502 332.682C66.502 330.425 66.4556 328.504 66.3628 326.921H69.1182C69.1182 327.249 69.882 328.557 71.4097 330.845C73.0363 333.276 73.9702 334.924 74.2114 335.79H74.3506C74.2021 334.411 74.1279 333.174 74.1279 332.079C74.1279 330.403 74.0846 328.684 73.998 326.921H76.3174C76.2308 328.455 76.1875 330.375 76.1875 332.682C76.1875 335.008 76.2308 337.114 76.3174 339ZM86.7544 333.647C86.7544 333.962 86.7358 334.374 86.6987 334.881L80.7241 334.983C80.8107 335.682 81.1107 336.263 81.624 336.727C82.1374 337.191 82.8115 337.423 83.6465 337.423C84.5742 337.423 85.5607 337.284 86.606 337.005L86.4204 338.805C85.5669 339.114 84.5093 339.269 83.2476 339.269C81.6519 339.269 80.4272 338.821 79.5737 337.924C78.7264 337.027 78.3027 335.948 78.3027 334.686C78.3027 333.369 78.7048 332.228 79.5088 331.263C80.319 330.292 81.4416 329.806 82.8765 329.806C84.1877 329.806 85.1618 330.162 85.7988 330.873C86.4359 331.584 86.7544 332.509 86.7544 333.647ZM84.5835 333.563C84.5835 332.141 83.9774 331.43 82.7651 331.43C81.6086 331.43 80.922 332.166 80.7056 333.638L84.5835 333.563ZM102.071 330.187C102.071 330.539 101.555 331.986 100.522 334.528C99.4953 337.07 98.9819 338.561 98.9819 339H96.8203C96.8203 338.715 96.5667 337.84 96.0596 336.375C95.4287 334.544 95.0267 333.298 94.8535 332.636H94.7051C94.5443 333.273 94.1608 334.504 93.5547 336.328C93.0661 337.775 92.8218 338.666 92.8218 339H90.6509C90.6509 338.623 90.1592 337.12 89.1758 334.491C88.1986 331.856 87.71 330.422 87.71 330.187H90.3818C90.3818 330.44 90.6509 331.504 91.189 333.378C91.7332 335.246 92.0054 336.356 92.0054 336.708H92.1445C92.1445 336.282 92.4538 335.175 93.0723 333.387C93.6908 331.594 94 330.527 94 330.187H96.1802C96.1802 330.422 96.4801 331.488 97.0801 333.387C97.6862 335.286 97.9893 336.393 97.9893 336.708H98.1191C98.1191 336.362 98.3913 335.311 98.9355 333.554C99.486 331.792 99.7612 330.669 99.7612 330.187H102.071ZM113.028 337.265L112.87 338.917C112.437 339.102 111.893 339.195 111.237 339.195C110.235 339.195 109.481 338.923 108.974 338.378C108.466 337.834 108.213 336.786 108.213 335.233C108.213 334.299 108.219 333.242 108.231 332.061C107.916 332.061 107.489 332.079 106.951 332.116L107.016 330.289C107.492 330.326 107.935 330.344 108.343 330.344C108.349 330.016 108.374 329.154 108.417 327.756L110.616 327.487C110.523 328.718 110.477 329.67 110.477 330.344C110.996 330.344 111.772 330.319 112.805 330.27L112.731 332.116C111.791 332.079 111.027 332.061 110.439 332.061C110.427 332.883 110.421 333.746 110.421 334.649C110.421 335.75 110.532 336.489 110.755 336.866C110.978 337.237 111.37 337.423 111.933 337.423C112.273 337.423 112.638 337.37 113.028 337.265ZM120.552 330.187L120.014 332.357C119.556 332.172 119.092 332.079 118.622 332.079C117.713 332.079 117.113 332.487 116.822 333.304C116.822 335.771 116.841 337.67 116.878 339H114.41C114.515 337.138 114.568 335.617 114.568 334.436C114.568 332.964 114.413 331.569 114.104 330.251L116.47 329.992C116.575 330.672 116.627 331.071 116.627 331.188H116.776C117.345 330.316 118.103 329.88 119.049 329.88C119.494 329.88 119.995 329.982 120.552 330.187ZM129.31 338.991L127.12 339.065C127.021 338.805 126.972 338.57 126.972 338.36H126.851C126.171 338.941 125.252 339.232 124.096 339.232C123.323 339.232 122.679 339.019 122.166 338.592C121.659 338.159 121.405 337.587 121.405 336.875C121.405 335.935 121.801 335.165 122.593 334.565C123.391 333.965 124.785 333.647 126.777 333.61C126.789 333.499 126.795 333.393 126.795 333.294C126.795 332.626 126.635 332.187 126.313 331.977C125.991 331.761 125.401 331.652 124.541 331.652C123.607 331.652 122.695 331.776 121.804 332.023L122.008 330.316C122.849 330.026 124.037 329.88 125.571 329.88C126.69 329.88 127.553 330.115 128.159 330.585C128.771 331.056 129.078 331.878 129.078 333.053C129.078 333.313 129.065 333.786 129.041 334.473C129.022 335.159 129.013 335.617 129.013 335.846C129.013 337.126 129.112 338.174 129.31 338.991ZM126.833 337.061C126.795 336.226 126.777 335.506 126.777 334.899C124.668 334.899 123.613 335.434 123.613 336.504C123.613 337.24 124.077 337.608 125.005 337.608C125.735 337.608 126.344 337.426 126.833 337.061ZM139.478 339H137.01C137.146 337.435 137.214 335.852 137.214 334.25C137.214 333.279 137.069 332.62 136.778 332.274C136.493 331.928 136.057 331.754 135.47 331.754C134.765 331.754 134.097 331.996 133.466 332.478C133.497 334.89 133.512 337.064 133.512 339H131.017C131.128 337.064 131.184 335.543 131.184 334.436C131.184 332.957 131.032 331.563 130.729 330.251L133.104 329.992L133.262 330.975H133.41C134.257 330.245 135.232 329.88 136.333 329.88C137.285 329.88 138.046 330.106 138.615 330.558C139.19 331.003 139.478 331.829 139.478 333.035C139.478 333.214 139.468 333.455 139.45 333.758C139.437 334.055 139.431 334.361 139.431 334.677C139.431 335.512 139.447 336.953 139.478 339ZM147.846 336.467C147.846 338.323 146.473 339.25 143.727 339.25C142.725 339.25 141.849 339.142 141.101 338.926L141.417 337.098C142.19 337.376 142.96 337.516 143.727 337.516C144.469 337.516 144.982 337.454 145.267 337.33C145.557 337.206 145.703 336.999 145.703 336.708C145.703 336.257 145.183 335.827 144.144 335.419C143.235 335.06 142.573 334.708 142.159 334.361C141.59 333.879 141.305 333.288 141.305 332.589C141.305 331.767 141.611 331.105 142.224 330.604C142.836 330.103 143.727 329.853 144.896 329.853C145.99 329.853 146.85 329.948 147.475 330.14L147.159 331.977C146.46 331.705 145.706 331.569 144.896 331.569C143.906 331.569 143.411 331.822 143.411 332.33C143.411 332.589 143.516 332.8 143.727 332.96C143.937 333.115 144.367 333.313 145.016 333.554C145.913 333.882 146.565 334.219 146.974 334.565C147.555 335.06 147.846 335.694 147.846 336.467ZM157.067 338.991L154.878 339.065C154.779 338.805 154.729 338.57 154.729 338.36H154.609C153.929 338.941 153.01 339.232 151.854 339.232C151.08 339.232 150.437 339.019 149.924 338.592C149.417 338.159 149.163 337.587 149.163 336.875C149.163 335.935 149.559 335.165 150.351 334.565C151.148 333.965 152.543 333.647 154.535 333.61C154.547 333.499 154.553 333.393 154.553 333.294C154.553 332.626 154.392 332.187 154.071 331.977C153.749 331.761 153.159 331.652 152.299 331.652C151.365 331.652 150.453 331.776 149.562 332.023L149.766 330.316C150.607 330.026 151.795 329.88 153.329 329.88C154.448 329.88 155.311 330.115 155.917 330.585C156.529 331.056 156.835 331.878 156.835 333.053C156.835 333.313 156.823 333.786 156.798 334.473C156.78 335.159 156.771 335.617 156.771 335.846C156.771 337.126 156.869 338.174 157.067 338.991ZM154.59 337.061C154.553 336.226 154.535 335.506 154.535 334.899C152.426 334.899 151.371 335.434 151.371 336.504C151.371 337.24 151.835 337.608 152.763 337.608C153.493 337.608 154.102 337.426 154.59 337.061ZM165.872 337.052L165.714 338.824C165.151 339.121 164.387 339.269 163.422 339.269C161.827 339.269 160.599 338.824 159.739 337.933C158.886 337.042 158.459 335.972 158.459 334.723C158.459 333.424 158.907 332.292 159.804 331.328C160.701 330.357 161.929 329.871 163.487 329.871C164.248 329.871 164.925 329.958 165.519 330.131L165.204 332.023C164.635 331.788 163.998 331.671 163.292 331.671C162.544 331.671 161.953 331.937 161.521 332.469C161.088 332.994 160.871 333.644 160.871 334.417C160.871 335.258 161.128 335.969 161.641 336.551C162.154 337.132 162.881 337.423 163.821 337.423C164.372 337.423 165.055 337.299 165.872 337.052ZM172.811 337.265L172.653 338.917C172.22 339.102 171.676 339.195 171.021 339.195C170.019 339.195 169.264 338.923 168.757 338.378C168.25 337.834 167.996 336.786 167.996 335.233C167.996 334.299 168.002 333.242 168.015 332.061C167.699 332.061 167.272 332.079 166.734 332.116L166.799 330.289C167.276 330.326 167.718 330.344 168.126 330.344C168.132 330.016 168.157 329.154 168.2 327.756L170.399 327.487C170.306 328.718 170.26 329.67 170.26 330.344C170.779 330.344 171.556 330.319 172.588 330.27L172.514 332.116C171.574 332.079 170.81 332.061 170.223 332.061C170.21 332.883 170.204 333.746 170.204 334.649C170.204 335.75 170.315 336.489 170.538 336.866C170.761 337.237 171.153 337.423 171.716 337.423C172.056 337.423 172.421 337.37 172.811 337.265ZM176.847 339H174.351C174.438 337.72 174.481 336.251 174.481 334.593C174.481 332.948 174.376 331.507 174.166 330.27L176.837 330.001C176.757 331.201 176.717 332.732 176.717 334.593C176.717 336.183 176.76 337.652 176.847 339ZM177.273 327.385C177.273 327.805 177.128 328.173 176.837 328.489C176.553 328.804 176.154 328.962 175.641 328.962C175.208 328.962 174.868 328.826 174.62 328.554C174.379 328.282 174.258 327.954 174.258 327.57C174.258 327.15 174.401 326.785 174.685 326.476C174.976 326.166 175.381 326.012 175.9 326.012C176.34 326.012 176.677 326.148 176.912 326.42C177.153 326.686 177.273 327.007 177.273 327.385ZM187.887 334.389C187.887 335.948 187.407 337.166 186.449 338.044C185.49 338.923 184.361 339.362 183.062 339.362C181.826 339.362 180.765 338.963 179.88 338.165C178.996 337.361 178.554 336.232 178.554 334.779C178.554 333.214 179.036 331.989 180.001 331.105C180.966 330.221 182.098 329.778 183.396 329.778C184.627 329.778 185.682 330.183 186.56 330.994C187.444 331.798 187.887 332.93 187.887 334.389ZM185.465 334.667C185.465 333.771 185.255 333.019 184.834 332.413C184.414 331.801 183.867 331.495 183.192 331.495C182.537 331.495 182.002 331.779 181.587 332.348C181.179 332.917 180.975 333.628 180.975 334.482C180.975 335.379 181.185 336.133 181.606 336.746C182.027 337.352 182.574 337.655 183.248 337.655C183.904 337.655 184.436 337.37 184.844 336.801C185.258 336.232 185.465 335.521 185.465 334.667ZM197.943 339H195.476C195.612 337.435 195.68 335.852 195.68 334.25C195.68 333.279 195.534 332.62 195.244 332.274C194.959 331.928 194.523 331.754 193.936 331.754C193.23 331.754 192.562 331.996 191.932 332.478C191.963 334.89 191.978 337.064 191.978 339H189.482C189.594 337.064 189.649 335.543 189.649 334.436C189.649 332.957 189.498 331.563 189.195 330.251L191.57 329.992L191.728 330.975H191.876C192.723 330.245 193.697 329.88 194.798 329.88C195.751 329.88 196.512 330.106 197.081 330.558C197.656 331.003 197.943 331.829 197.943 333.035C197.943 333.214 197.934 333.455 197.916 333.758C197.903 334.055 197.897 334.361 197.897 334.677C197.897 335.512 197.912 336.953 197.943 339Z" fill="black"/>
<path d="M112.965 147.447L112.616 151H99.9824L100.331 147.663C105.002 145.062 107.337 142.45 107.337 139.827C107.337 137.647 105.826 136.557 102.805 136.557C101.997 136.557 101.139 136.634 100.231 136.789L100.547 133.701C101.51 133.458 102.877 133.336 104.647 133.336C106.905 133.336 108.626 133.817 109.811 134.78C110.995 135.743 111.587 137.055 111.587 138.715C111.587 140.796 110.812 142.583 109.263 144.077C107.724 145.571 106.092 146.706 104.365 147.48V147.696C106.811 147.696 109.678 147.613 112.965 147.447ZM121.73 148.41C121.73 151.299 119.96 154.37 116.418 157.624L114.94 156.362C116.446 154.691 117.198 152.882 117.198 150.934C116.357 150.424 115.937 149.6 115.937 148.46C115.937 147.663 116.219 146.966 116.783 146.368C117.348 145.771 118.128 145.472 119.124 145.472C119.943 145.472 120.579 145.771 121.033 146.368C121.498 146.966 121.73 147.646 121.73 148.41ZM139.859 142.218C139.859 145.383 139.195 147.752 137.867 149.323C136.539 150.884 134.613 151.664 132.09 151.664C129.644 151.664 127.796 150.978 126.545 149.605C125.305 148.222 124.686 146.031 124.686 143.031C124.686 139.943 125.355 137.52 126.694 135.76C128.045 134 129.981 133.12 132.505 133.12C134.929 133.12 136.76 133.906 138 135.478C139.24 137.038 139.859 139.285 139.859 142.218ZM135.759 143.264C135.759 141.238 135.477 139.573 134.912 138.267C134.348 136.961 133.418 136.308 132.123 136.308C129.932 136.308 128.836 138.178 128.836 141.919C128.836 144.144 129.118 145.793 129.683 146.866C130.258 147.929 131.182 148.46 132.455 148.46C134.658 148.46 135.759 146.728 135.759 143.264ZM158.021 142.218C158.021 145.383 157.357 147.752 156.029 149.323C154.701 150.884 152.775 151.664 150.252 151.664C147.806 151.664 145.958 150.978 144.707 149.605C143.467 148.222 142.848 146.031 142.848 143.031C142.848 139.943 143.517 137.52 144.856 135.76C146.207 134 148.144 133.12 150.667 133.12C153.091 133.12 154.923 133.906 156.162 135.478C157.402 137.038 158.021 139.285 158.021 142.218ZM153.921 143.264C153.921 141.238 153.639 139.573 153.074 138.267C152.51 136.961 151.58 136.308 150.285 136.308C148.094 136.308 146.998 138.178 146.998 141.919C146.998 144.144 147.28 145.793 147.845 146.866C148.42 147.929 149.344 148.46 150.617 148.46C152.82 148.46 153.921 146.728 153.921 143.264ZM176.184 142.218C176.184 145.383 175.52 147.752 174.191 149.323C172.863 150.884 170.938 151.664 168.414 151.664C165.968 151.664 164.12 150.978 162.869 149.605C161.63 148.222 161.01 146.031 161.01 143.031C161.01 139.943 161.679 137.52 163.019 135.76C164.369 134 166.306 133.12 168.829 133.12C171.253 133.12 173.085 133.906 174.324 135.478C175.564 137.038 176.184 139.285 176.184 142.218ZM172.083 143.264C172.083 141.238 171.801 139.573 171.236 138.267C170.672 136.961 169.742 136.308 168.447 136.308C166.256 136.308 165.16 138.178 165.16 141.919C165.16 144.144 165.442 145.793 166.007 146.866C166.582 147.929 167.507 148.46 168.779 148.46C170.982 148.46 172.083 146.728 172.083 143.264Z" fill="#157CFF"/>
<path d="M322.601 196.062C322.601 197.846 321.753 199.393 320.057 200.703C318.114 202.206 315.416 203.058 311.962 203.26L311.606 201.059C313.917 200.909 315.746 200.439 317.09 199.648C318.488 198.839 319.187 197.798 319.187 196.523C319.187 194.432 317.227 193.386 313.307 193.386L313.583 191.263C315.034 191.263 316.216 191.017 317.13 190.525C318.053 190.024 318.514 189.387 318.514 188.613C318.514 187.207 317.416 186.504 315.218 186.504C314.234 186.504 313.359 186.583 312.595 186.741L312.832 184.302C313.447 184.083 314.704 183.973 316.603 183.973C318.264 183.973 319.542 184.311 320.439 184.988C321.265 185.629 321.678 186.495 321.678 187.585C321.678 188.446 321.366 189.237 320.742 189.958C320.171 190.617 319.472 191.079 318.646 191.342V191.54C319.815 191.733 320.764 192.239 321.494 193.056C322.232 193.874 322.601 194.875 322.601 196.062ZM337.09 193.438L336.813 196.299H334.717C334.717 197.943 334.77 199.96 334.875 202.351H331.395C331.474 200.127 331.513 198.11 331.513 196.299H324.724L324.447 193.808C324.447 193.649 325.576 192.045 327.835 188.996C330.103 185.946 331.245 184.311 331.263 184.091H334.875C334.761 187.044 334.704 190.2 334.704 193.557C335.486 193.557 336.281 193.518 337.09 193.438ZM331.83 186.952H331.645C331.645 187.137 330.889 188.249 329.377 190.288C327.875 192.327 327.123 193.408 327.123 193.531V193.702C328.239 193.702 329.733 193.68 331.605 193.636C331.667 191.175 331.742 188.947 331.83 186.952ZM345.712 183.92C345.712 184.781 345.431 185.511 344.868 186.108C344.244 186.776 343.4 187.11 342.337 187.11C341.273 187.11 340.43 186.781 339.806 186.122C339.243 185.533 338.962 184.808 338.962 183.946C338.962 183.085 339.243 182.355 339.806 181.758C340.43 181.09 341.273 180.756 342.337 180.756C343.4 180.756 344.244 181.085 344.868 181.745C345.431 182.333 345.712 183.059 345.712 183.92ZM351.302 194.955C351.302 195.816 351.021 196.545 350.458 197.143C349.834 197.802 348.99 198.132 347.927 198.132C346.863 198.132 346.015 197.807 345.382 197.156C344.82 196.559 344.539 195.833 344.539 194.981C344.539 194.12 344.824 193.39 345.396 192.792C346.02 192.125 346.863 191.791 347.927 191.791C348.99 191.791 349.834 192.12 350.458 192.779C351.021 193.368 351.302 194.093 351.302 194.955ZM350.946 180.967C350.946 181.749 349.298 184.531 346.002 189.312C342.706 194.093 341.058 196.989 341.058 198L339.107 197.868C339.107 197.016 340.755 194.19 344.051 189.391C347.347 184.592 348.995 181.74 348.995 180.835L350.946 180.967ZM343.827 183.973C343.827 183.489 343.704 183.076 343.458 182.733C343.194 182.355 342.833 182.167 342.376 182.167C341.928 182.167 341.568 182.355 341.295 182.733C341.049 183.076 340.926 183.489 340.926 183.973C340.926 184.447 341.045 184.847 341.282 185.172C341.555 185.533 341.919 185.713 342.376 185.713C342.842 185.713 343.207 185.533 343.471 185.172C343.708 184.847 343.827 184.447 343.827 183.973ZM349.417 195.007C349.417 194.524 349.293 194.111 349.047 193.768C348.784 193.39 348.423 193.201 347.966 193.201C347.518 193.201 347.158 193.39 346.885 193.768C346.639 194.111 346.516 194.524 346.516 195.007C346.516 195.482 346.635 195.882 346.872 196.207C347.145 196.567 347.509 196.748 347.966 196.748C348.432 196.748 348.797 196.567 349.061 196.207C349.298 195.882 349.417 195.482 349.417 195.007Z" fill="black"/>
<path d="M83.3525 363.286C82.4688 363.286 81.729 362.976 81.1333 362.355C80.5425 361.73 80.2471 360.876 80.2471 359.792C80.2471 358.537 80.5791 357.546 81.2432 356.818C81.9072 356.091 82.7202 355.727 83.6821 355.727C84.4438 355.727 85.1445 356.02 85.7842 356.606C86.4238 357.187 86.7437 358.073 86.7437 359.265C86.7437 360.5 86.4092 361.479 85.7402 362.202C85.0762 362.924 84.2803 363.286 83.3525 363.286ZM83.4844 356.218C82.5859 356.218 81.9268 356.564 81.5068 357.258C81.0869 357.946 80.877 358.681 80.877 359.462C80.877 360.439 81.1162 361.237 81.5947 361.857C82.0732 362.478 82.708 362.788 83.499 362.788C84.3926 362.788 85.0542 362.441 85.4839 361.748C85.9136 361.054 86.1284 360.322 86.1284 359.55C86.1284 358.598 85.8843 357.805 85.396 357.17C84.9077 356.535 84.2705 356.218 83.4844 356.218ZM92.647 356.687C92.2563 356.525 91.8462 356.445 91.4165 356.445C90.9624 356.445 90.5669 356.574 90.23 356.833C89.8979 357.092 89.6538 357.468 89.4976 357.961C89.4976 360.256 89.5171 361.936 89.5562 363H88.8384C88.8872 361.662 88.9116 360.461 88.9116 359.396C88.9116 358.288 88.8164 357.175 88.626 356.057L89.2705 355.888C89.3828 356.469 89.4438 356.865 89.4536 357.075H89.5415C89.8442 356.645 90.1494 356.325 90.457 356.115C90.7695 355.905 91.0942 355.8 91.4312 355.8C91.8169 355.8 92.2856 355.881 92.8374 356.042L92.647 356.687ZM102.198 363.015C102.139 362.741 102.11 362.507 102.11 362.312H102.081C101.797 362.541 101.443 362.741 101.019 362.912C100.594 363.083 100.132 363.168 99.6343 363.168C98.6138 363.168 97.9399 362.946 97.6128 362.502C97.2905 362.053 97.1294 361.445 97.1294 360.678L97.1367 359.748C97.1367 359.631 97.1392 359.465 97.144 359.25C97.1538 358.981 97.1587 358.623 97.1587 358.173C97.1587 357.548 97.1294 356.848 97.0708 356.071L97.8472 356.027C97.8081 356.882 97.7886 357.856 97.7886 358.95C97.7886 359.829 97.813 360.542 97.8618 361.088C97.9106 361.635 98.062 362.019 98.3159 362.238C98.5747 362.458 99.0288 362.568 99.6782 362.568C100.699 362.568 101.495 362.297 102.066 361.755C102.066 358.83 102.046 356.936 102.007 356.071L102.696 356.027L102.688 356.525C102.664 357.99 102.652 359.152 102.652 360.012C102.652 361.027 102.696 362.023 102.784 363L102.198 363.015ZM105.611 356.745H105.64C105.865 356.467 106.194 356.237 106.629 356.057C107.063 355.876 107.569 355.786 108.145 355.786C109.073 355.786 109.8 356.132 110.328 356.826C110.86 357.514 111.126 358.322 111.126 359.25C111.126 360.388 110.809 361.328 110.174 362.07C109.544 362.812 108.716 363.183 107.691 363.183C107.217 363.183 106.812 363.137 106.475 363.044C106.143 362.951 105.904 362.841 105.757 362.714H105.699C105.699 364.223 105.713 365.434 105.743 366.347H104.952C104.981 365.717 104.998 364.995 105.003 364.179C105.008 363.364 105.01 362.49 105.01 361.557V360.195C105.01 359.169 104.998 358.342 104.974 357.712C104.949 357.082 104.896 356.525 104.812 356.042L105.501 355.888L105.611 356.745ZM110.423 359.338C110.423 358.4 110.193 357.673 109.734 357.155C109.275 356.633 108.646 356.372 107.845 356.372C107.352 356.372 106.915 356.469 106.534 356.665C106.158 356.855 105.84 357.106 105.582 357.419C105.582 357.897 105.594 358.51 105.618 359.257L105.64 360.708C105.65 361.313 105.655 361.792 105.655 362.143C105.884 362.309 106.165 362.436 106.497 362.524C106.834 362.612 107.193 362.656 107.574 362.656C108.472 362.656 109.17 362.355 109.668 361.755C110.171 361.149 110.423 360.344 110.423 359.338ZM113.045 352.68L113.917 352.651C113.858 353.94 113.829 355.563 113.829 357.521C113.829 359.465 113.868 361.291 113.946 363H113.089C113.182 361.481 113.228 359.655 113.228 357.521C113.228 355.725 113.167 354.111 113.045 352.68ZM119.183 363.286C118.299 363.286 117.559 362.976 116.963 362.355C116.373 361.73 116.077 360.876 116.077 359.792C116.077 358.537 116.409 357.546 117.073 356.818C117.737 356.091 118.55 355.727 119.512 355.727C120.274 355.727 120.975 356.02 121.614 356.606C122.254 357.187 122.574 358.073 122.574 359.265C122.574 360.5 122.239 361.479 121.57 362.202C120.906 362.924 120.11 363.286 119.183 363.286ZM119.314 356.218C118.416 356.218 117.757 356.564 117.337 357.258C116.917 357.946 116.707 358.681 116.707 359.462C116.707 360.439 116.946 361.237 117.425 361.857C117.903 362.478 118.538 362.788 119.329 362.788C120.223 362.788 120.884 362.441 121.314 361.748C121.744 361.054 121.958 360.322 121.958 359.55C121.958 358.598 121.714 357.805 121.226 357.17C120.738 356.535 120.101 356.218 119.314 356.218ZM129.048 362.253C128.399 362.873 127.579 363.183 126.587 363.183C125.845 363.183 125.274 363.02 124.874 362.692C124.473 362.36 124.273 361.877 124.273 361.242C124.273 360.446 124.615 359.833 125.298 359.404C125.987 358.974 127.237 358.752 129.048 358.737C129.068 358.562 129.078 358.388 129.078 358.217C129.078 357.548 128.887 357.084 128.506 356.826C128.125 356.562 127.605 356.43 126.946 356.43C126.165 356.43 125.379 356.53 124.588 356.73L124.683 356.101C125.43 355.9 126.194 355.8 126.976 355.8C127.82 355.8 128.479 355.976 128.953 356.328C129.427 356.674 129.664 357.253 129.664 358.063C129.664 358.327 129.649 358.713 129.62 359.221C129.595 359.724 129.583 360.224 129.583 360.722C129.583 361.44 129.639 362.199 129.751 363L129.166 363.029C129.117 362.727 129.092 362.468 129.092 362.253H129.048ZM129.078 359.25C127.789 359.25 126.775 359.399 126.038 359.697C125.301 359.99 124.932 360.527 124.932 361.308C124.932 362.177 125.508 362.612 126.661 362.612C127.188 362.612 127.654 362.534 128.06 362.377C128.47 362.221 128.809 361.984 129.078 361.667V359.25ZM137.94 356.02L137.947 357.492C137.947 359.67 137.991 361.506 138.079 363L137.464 363.015C137.425 362.785 137.405 362.521 137.405 362.224H137.332C137.107 362.492 136.778 362.719 136.343 362.905C135.909 363.09 135.418 363.183 134.871 363.183C133.978 363.183 133.248 362.849 132.681 362.18C132.12 361.506 131.839 360.683 131.839 359.711C131.839 358.549 132.159 357.602 132.798 356.87C133.438 356.137 134.292 355.771 135.362 355.771C135.806 355.771 136.189 355.822 136.512 355.925C136.839 356.022 137.09 356.167 137.266 356.357H137.281C137.281 355.478 137.261 354.257 137.222 352.695L137.991 352.651C137.952 353.237 137.933 353.947 137.933 354.782C137.933 355.319 137.935 355.732 137.94 356.02ZM137.281 356.892C137.071 356.691 136.81 356.542 136.497 356.445C136.185 356.347 135.843 356.298 135.472 356.298C134.5 356.298 133.768 356.591 133.274 357.177C132.786 357.758 132.542 358.603 132.542 359.711C132.542 360.585 132.774 361.284 133.238 361.806C133.707 362.324 134.351 362.583 135.171 362.583C135.582 362.583 135.955 362.517 136.292 362.385C136.629 362.248 136.995 361.972 137.391 361.557C137.391 361.308 137.393 360.935 137.398 360.437C137.398 359.167 137.359 357.985 137.281 356.892ZM172.02 363C172.088 361.896 172.122 360.817 172.122 359.763C172.122 358.532 172.078 357.492 171.99 356.643C170.848 356.701 169.712 356.73 168.584 356.73C168.584 359.143 168.609 361.232 168.658 363H167.889C167.952 361.525 167.984 359.431 167.984 356.716C167.681 356.716 167.085 356.73 166.197 356.76L166.241 356.145L166.885 356.167C167.422 356.191 167.789 356.203 167.984 356.203C167.999 355.192 168.082 354.443 168.233 353.955C168.389 353.466 168.653 353.1 169.024 352.856C169.395 352.607 169.947 352.482 170.679 352.482C171.011 352.482 171.375 352.531 171.771 352.629C172.166 352.727 172.479 352.829 172.708 352.937L172.393 353.508C171.768 353.195 171.143 353.039 170.518 353.039C169.795 353.039 169.292 353.251 169.009 353.676C168.726 354.101 168.584 354.943 168.584 356.203C169.688 356.203 170.503 356.184 171.031 356.145C171.563 356.101 172.137 356.02 172.752 355.903C172.703 357.109 172.679 358.396 172.679 359.763C172.679 360.93 172.713 362.009 172.781 363H172.02ZM174.861 352.68L175.733 352.651C175.674 353.94 175.645 355.563 175.645 357.521C175.645 359.465 175.684 361.291 175.762 363H174.905C174.998 361.481 175.044 359.655 175.044 357.521C175.044 355.725 174.983 354.111 174.861 352.68ZM178.479 359.338C178.479 360.285 178.77 361.069 179.351 361.689C179.937 362.304 180.726 362.612 181.717 362.612C182.469 362.612 183.094 362.536 183.592 362.385L183.489 362.971C183.338 363.02 183.104 363.066 182.786 363.11C182.469 363.159 182.132 363.183 181.775 363.183C180.481 363.183 179.507 362.844 178.853 362.165C178.204 361.481 177.879 360.639 177.879 359.638C177.879 359.106 177.942 358.613 178.069 358.159C178.201 357.705 178.396 357.29 178.655 356.914C179.271 356.113 180.062 355.712 181.028 355.712C181.897 355.712 182.571 355.993 183.05 356.555C183.533 357.116 183.775 357.81 183.775 358.635C183.775 358.903 183.765 359.118 183.746 359.279L178.479 359.338ZM178.523 358.818H183.116C183.116 357.993 182.938 357.358 182.581 356.914C182.225 356.469 181.697 356.247 180.999 356.247C180.35 356.247 179.803 356.467 179.358 356.906C178.919 357.341 178.641 357.978 178.523 358.818Z" fill="#78748E"/>
<path d="M143.609 362.297C143.609 362.053 143.677 361.86 143.814 361.718C143.956 361.572 144.141 361.499 144.371 361.499C144.6 361.499 144.759 361.56 144.847 361.682C144.939 361.804 144.986 361.967 144.986 362.172C144.986 362.392 144.913 362.583 144.766 362.744C144.625 362.905 144.444 362.985 144.224 362.985C144.009 362.985 143.853 362.919 143.755 362.788C143.658 362.651 143.609 362.487 143.609 362.297ZM148.897 357.521C148.956 357.609 149.083 357.802 149.278 358.1C149.478 358.393 149.659 358.647 149.82 358.862H149.864C150.542 358.056 151.045 357.402 151.373 356.899C151.705 356.396 151.871 356.11 151.871 356.042H152.684C152.684 356.105 152.315 356.596 151.578 357.514C150.84 358.432 150.364 359.006 150.149 359.235V359.265C150.647 359.88 151.124 360.495 151.578 361.11C152.037 361.721 152.325 362.099 152.442 362.246L152.742 362.626C152.767 362.661 152.818 362.727 152.896 362.824C152.974 362.922 153.013 362.98 153.013 363H152.171C152.171 362.917 151.917 362.514 151.409 361.792C150.901 361.064 150.372 360.341 149.82 359.624H149.805C149.449 360.102 149.129 360.549 148.846 360.964C148.567 361.374 148.282 361.792 147.989 362.216C147.696 362.636 147.549 362.897 147.549 363H146.744C146.744 362.937 146.822 362.792 146.978 362.568C147.139 362.338 147.41 361.982 147.791 361.499L148.472 360.612C148.956 359.973 149.31 359.528 149.534 359.279V359.265C149.29 358.938 148.799 358.293 148.062 357.331L147.703 356.87C147.645 356.801 147.53 356.655 147.359 356.43C147.188 356.206 147.103 356.076 147.103 356.042H147.945C147.945 356.096 147.999 356.206 148.106 356.372C148.213 356.538 148.394 356.796 148.648 357.148L148.897 357.521ZM154.559 352.68L155.43 352.651C155.372 353.94 155.342 355.563 155.342 357.521C155.342 359.465 155.381 361.291 155.459 363H154.603C154.695 361.481 154.742 359.655 154.742 357.521C154.742 355.725 154.681 354.111 154.559 352.68ZM157.474 362.758L157.635 362.07C157.962 362.221 158.318 362.331 158.704 362.399C159.095 362.468 159.539 362.502 160.037 362.502C160.506 362.502 160.875 362.39 161.143 362.165C161.417 361.94 161.553 361.65 161.553 361.293C161.553 361 161.482 360.742 161.341 360.517C161.199 360.292 160.875 360.08 160.367 359.88C159.859 359.675 159.388 359.472 158.953 359.272C158.519 359.072 158.196 358.833 157.986 358.554C157.781 358.271 157.679 357.949 157.679 357.587C157.679 357.06 157.889 356.643 158.309 356.335C158.729 356.027 159.258 355.874 159.898 355.874C160.596 355.874 161.253 355.964 161.868 356.145L161.7 356.76C161.216 356.56 160.591 356.459 159.825 356.459C159.346 356.459 158.965 356.567 158.682 356.782C158.404 356.997 158.265 357.26 158.265 357.573C158.265 357.929 158.414 358.208 158.711 358.408C159.009 358.608 159.51 358.852 160.213 359.14C160.916 359.423 161.412 359.709 161.7 359.997C161.993 360.285 162.139 360.686 162.139 361.198C162.139 361.809 161.934 362.282 161.524 362.619C161.114 362.951 160.547 363.117 159.825 363.117C159.009 363.117 158.226 362.998 157.474 362.758Z" fill="#5CE050"/>
<path d="M309.908 222.437C309.908 221.451 310.133 220.567 310.582 219.786C311.031 219.004 311.642 218.399 312.413 217.969C313.189 217.54 314.02 217.325 314.903 217.325C315.172 217.325 315.396 217.342 315.577 217.376C315.763 217.405 315.982 217.459 316.236 217.537L316.09 218.152C315.528 218.001 315.077 217.925 314.735 217.925C313.495 217.925 312.484 218.323 311.703 219.119C310.926 219.91 310.538 220.953 310.538 222.247C310.538 223.716 310.934 224.822 311.725 225.564C312.521 226.302 313.639 226.67 315.079 226.67C315.558 226.67 316.144 226.565 316.837 226.355L316.793 226.897C316.256 227.098 315.626 227.198 314.903 227.198C313.365 227.198 312.147 226.778 311.249 225.938C310.355 225.098 309.908 223.931 309.908 222.437ZM321.275 227.286C320.392 227.286 319.652 226.976 319.056 226.355C318.465 225.73 318.17 224.876 318.17 223.792C318.17 222.537 318.502 221.546 319.166 220.818C319.83 220.091 320.643 219.727 321.605 219.727C322.367 219.727 323.067 220.02 323.707 220.606C324.347 221.187 324.667 222.073 324.667 223.265C324.667 224.5 324.332 225.479 323.663 226.202C322.999 226.924 322.203 227.286 321.275 227.286ZM321.407 220.218C320.509 220.218 319.85 220.564 319.43 221.258C319.01 221.946 318.8 222.681 318.8 223.462C318.8 224.439 319.039 225.237 319.518 225.857C319.996 226.478 320.631 226.788 321.422 226.788C322.315 226.788 322.977 226.441 323.407 225.748C323.836 225.054 324.051 224.322 324.051 223.55C324.051 222.598 323.807 221.805 323.319 221.17C322.831 220.535 322.193 220.218 321.407 220.218ZM327.596 220.877H327.611C328.27 220.159 328.971 219.8 329.713 219.8C330.357 219.8 330.877 219.893 331.273 220.079C331.668 220.259 331.93 220.525 332.057 220.877H332.115C332.481 220.525 332.853 220.259 333.229 220.079C333.604 219.893 333.968 219.8 334.32 219.8C335.14 219.8 335.755 219.983 336.166 220.35C336.576 220.716 336.781 221.343 336.781 222.232L336.766 222.957L336.751 223.353L336.759 224.568C336.773 225.242 336.781 226.053 336.781 227H336.07C336.183 225.667 336.239 224.041 336.239 222.122C336.239 221.497 336.092 221.055 335.799 220.796C335.506 220.533 334.994 220.401 334.261 220.401C333.924 220.401 333.578 220.494 333.221 220.679C332.87 220.865 332.53 221.136 332.203 221.492C332.184 221.883 332.174 222.503 332.174 223.353C332.174 224.163 332.188 225.379 332.218 227H331.5C331.588 225.75 331.632 224.224 331.632 222.422C331.632 221.563 331.466 221.011 331.134 220.767C330.802 220.523 330.309 220.401 329.654 220.401C328.971 220.401 328.27 220.73 327.552 221.39C327.542 221.688 327.538 222.237 327.538 223.038C327.538 223.917 327.545 224.979 327.56 226.224L327.567 227H326.893C326.981 225.198 327.025 223.997 327.025 223.396C327.025 222.42 326.927 221.302 326.732 220.042L327.45 219.888L327.596 220.877ZM339.454 217.295C339.586 217.295 339.693 217.354 339.776 217.471C339.859 217.583 339.901 217.715 339.901 217.867C339.901 218.042 339.857 218.194 339.769 218.321C339.681 218.448 339.547 218.511 339.366 218.511C339.215 218.511 339.093 218.455 339 218.343C338.912 218.23 338.868 218.096 338.868 217.94C338.868 217.774 338.919 217.625 339.022 217.493C339.129 217.361 339.273 217.295 339.454 217.295ZM338.824 220.101L339.652 219.903C339.598 221.041 339.571 222.327 339.571 223.763C339.571 224.954 339.608 226.033 339.681 227H338.912C338.985 225.818 339.022 224.739 339.022 223.763C339.022 222.386 338.956 221.165 338.824 220.101ZM342.34 223.382C342.34 224.373 342.638 225.159 343.233 225.74C343.834 226.321 344.615 226.612 345.577 226.612C345.812 226.612 346.031 226.592 346.236 226.553C346.441 226.509 346.693 226.438 346.991 226.341V226.868C346.825 226.971 346.583 227.049 346.266 227.103C345.953 227.156 345.67 227.183 345.416 227.183C344.308 227.183 343.412 226.851 342.728 226.187C342.049 225.523 341.71 224.668 341.71 223.624C341.71 222.828 341.874 222.154 342.201 221.602C342.533 221.05 342.965 220.613 343.497 220.291C344.034 219.964 344.688 219.8 345.46 219.8C345.963 219.8 346.368 219.866 346.676 219.998L346.551 220.73C346.229 220.628 345.958 220.552 345.738 220.503C345.523 220.455 345.301 220.43 345.072 220.43C344.603 220.43 344.151 220.56 343.717 220.818C343.282 221.077 342.943 221.426 342.699 221.866C342.459 222.3 342.34 222.806 342.34 223.382ZM348.478 226.758L348.639 226.07C348.966 226.221 349.322 226.331 349.708 226.399C350.099 226.468 350.543 226.502 351.041 226.502C351.51 226.502 351.878 226.39 352.147 226.165C352.42 225.94 352.557 225.65 352.557 225.293C352.557 225 352.486 224.742 352.345 224.517C352.203 224.292 351.878 224.08 351.371 223.88C350.863 223.675 350.392 223.472 349.957 223.272C349.522 223.072 349.2 222.833 348.99 222.554C348.785 222.271 348.683 221.949 348.683 221.587C348.683 221.06 348.893 220.643 349.312 220.335C349.732 220.027 350.262 219.874 350.902 219.874C351.6 219.874 352.257 219.964 352.872 220.145L352.704 220.76C352.22 220.56 351.595 220.459 350.829 220.459C350.35 220.459 349.969 220.567 349.686 220.782C349.408 220.997 349.269 221.26 349.269 221.573C349.269 221.929 349.417 222.208 349.715 222.408C350.013 222.608 350.514 222.852 351.217 223.14C351.92 223.423 352.416 223.709 352.704 223.997C352.997 224.285 353.143 224.686 353.143 225.198C353.143 225.809 352.938 226.282 352.528 226.619C352.118 226.951 351.551 227.117 350.829 227.117C350.013 227.117 349.229 226.998 348.478 226.758Z" fill="#78748E"/>
<path d="M106.337 109.264L106.213 110.949C105.52 111.115 104.836 111.198 104.162 111.198C102.487 111.198 101.21 110.736 100.332 109.813C99.4575 108.886 99.0205 107.76 99.0205 106.437C99.0205 105.065 99.4844 103.871 100.412 102.855C101.345 101.84 102.622 101.332 104.243 101.332C104.838 101.332 105.402 101.4 105.935 101.537L105.678 103.229C105.102 103.043 104.55 102.951 104.023 102.951C103.032 102.951 102.294 103.266 101.811 103.896C101.328 104.521 101.086 105.282 101.086 106.181C101.086 107.099 101.372 107.895 101.943 108.568C102.519 109.242 103.325 109.579 104.36 109.579C104.965 109.579 105.625 109.474 106.337 109.264ZM115.72 101.464C115.676 103.104 115.654 104.745 115.654 106.386C115.654 109.628 114.326 111.249 111.669 111.249C110.356 111.249 109.367 110.89 108.703 110.172C108.039 109.455 107.707 108.166 107.707 106.305C107.707 104.665 107.685 103.051 107.641 101.464H109.714C109.65 103.114 109.619 104.706 109.619 106.239C109.619 107.582 109.79 108.502 110.131 109C110.473 109.499 111 109.748 111.713 109.748C112.46 109.748 113 109.501 113.332 109.008C113.664 108.51 113.83 107.582 113.83 106.225C113.83 104.735 113.798 103.148 113.735 101.464H115.72ZM125.395 111H123.227C122.661 109.271 122.226 108.205 121.923 107.799C121.621 107.394 121.132 107.191 120.458 107.191C120.175 107.191 119.904 107.194 119.646 107.199C119.646 108.454 119.667 109.721 119.711 111H117.675C117.739 109.525 117.771 107.863 117.771 106.012C117.771 104.235 117.739 102.719 117.675 101.464H118.942C119.089 101.464 119.394 101.457 119.858 101.442C120.327 101.427 120.759 101.42 121.154 101.42C123.396 101.42 124.516 102.187 124.516 103.72C124.516 104.936 123.876 105.783 122.597 106.261V106.371C123.09 106.508 123.522 106.894 123.894 107.528C124.265 108.158 124.765 109.315 125.395 111ZM122.648 104.262C122.648 103.29 122.023 102.804 120.773 102.804C120.314 102.804 119.909 102.838 119.558 102.907C119.611 103.664 119.638 104.65 119.638 105.866C119.907 105.875 120.134 105.88 120.319 105.88C121.872 105.88 122.648 105.341 122.648 104.262ZM134.331 111H132.163C131.596 109.271 131.162 108.205 130.859 107.799C130.556 107.394 130.068 107.191 129.394 107.191C129.111 107.191 128.84 107.194 128.581 107.199C128.581 108.454 128.603 109.721 128.647 111H126.611C126.674 109.525 126.706 107.863 126.706 106.012C126.706 104.235 126.674 102.719 126.611 101.464H127.878C128.024 101.464 128.33 101.457 128.793 101.442C129.262 101.427 129.694 101.42 130.09 101.42C132.331 101.42 133.452 102.187 133.452 103.72C133.452 104.936 132.812 105.783 131.533 106.261V106.371C132.026 106.508 132.458 106.894 132.829 107.528C133.2 108.158 133.701 109.315 134.331 111ZM131.584 104.262C131.584 103.29 130.959 102.804 129.709 102.804C129.25 102.804 128.845 102.838 128.493 102.907C128.547 103.664 128.574 104.65 128.574 105.866C128.842 105.875 129.069 105.88 129.255 105.88C130.808 105.88 131.584 105.341 131.584 104.262ZM141.838 109.389L141.779 111H135.546C135.61 109.525 135.642 107.863 135.642 106.012C135.642 104.235 135.61 102.719 135.546 101.464H141.494L141.413 103.068C139.948 102.99 138.62 102.951 137.429 102.951C137.478 103.629 137.502 104.43 137.502 105.353C138.522 105.353 139.614 105.326 140.776 105.272V106.803C139.633 106.754 138.542 106.73 137.502 106.73C137.502 107.721 137.521 108.649 137.561 109.513C138.898 109.513 140.324 109.472 141.838 109.389ZM151.315 111H149.506C149.506 110.8 148.835 109.743 147.492 107.829C146.086 105.812 145.285 104.433 145.09 103.69H144.973C145.095 104.76 145.156 105.727 145.156 106.591C145.156 107.797 145.19 109.267 145.258 111H143.457C143.53 109.486 143.566 107.824 143.566 106.012C143.566 104.23 143.53 102.714 143.457 101.464H145.632C145.632 101.723 146.235 102.755 147.441 104.562C148.725 106.481 149.462 107.782 149.653 108.466H149.763C149.646 107.377 149.587 106.4 149.587 105.536C149.587 104.213 149.553 102.855 149.484 101.464H151.315C151.247 102.675 151.213 104.191 151.213 106.012C151.213 107.848 151.247 109.511 151.315 111ZM160.104 101.464L160.053 103.039C159.077 102.965 158.156 102.929 157.292 102.929C157.282 103.852 157.277 104.879 157.277 106.012C157.277 107.77 157.304 109.433 157.358 111H155.307C155.371 109.447 155.402 107.785 155.402 106.012C155.402 104.899 155.393 103.871 155.373 102.929C154.685 102.929 153.74 102.968 152.539 103.046L152.597 101.464H160.104ZM175.588 111H173.457C173.457 110.17 173.405 108.771 173.303 106.803C173.2 104.831 173.146 103.6 173.142 103.112H173.032C172.983 103.405 172.854 103.947 172.644 104.738C172.434 105.529 172.038 106.696 171.457 108.239C170.881 109.777 170.593 110.697 170.593 111H168.974C168.974 110.688 168.696 109.757 168.139 108.209C167.587 106.662 167.226 105.578 167.055 104.958C166.884 104.337 166.748 103.722 166.645 103.112H166.535C166.53 103.722 166.469 105.031 166.352 107.038C166.24 109.044 166.184 110.365 166.184 111H164.25C164.25 110.854 164.426 109.386 164.777 106.598C165.134 103.81 165.312 102.099 165.312 101.464H168.146C168.146 102.011 168.444 103.217 169.04 105.082C169.641 106.947 169.941 108.141 169.941 108.664H170.051C170.051 108.136 170.39 106.94 171.069 105.075C171.752 103.209 172.094 102.006 172.094 101.464H174.907C174.907 102.475 175.019 104.279 175.244 106.876C175.473 109.469 175.588 110.844 175.588 111ZM185.856 111H183.513C183.513 110.678 183.291 109.765 182.846 108.261H179.462C179.003 109.74 178.774 110.653 178.774 111H176.569C176.569 110.81 177.138 109.247 178.276 106.312C179.418 103.378 179.99 101.762 179.99 101.464H182.758C182.758 101.742 183.273 103.336 184.304 106.247C185.339 109.152 185.856 110.736 185.856 111ZM182.473 106.862C181.638 104.342 181.22 102.98 181.22 102.775H181.103C181.103 102.965 180.671 104.328 179.807 106.862H182.473ZM194.851 111H193.042C193.042 110.8 192.37 109.743 191.027 107.829C189.621 105.812 188.82 104.433 188.625 103.69H188.508C188.63 104.76 188.691 105.727 188.691 106.591C188.691 107.797 188.725 109.267 188.793 111H186.992C187.065 109.486 187.102 107.824 187.102 106.012C187.102 104.23 187.065 102.714 186.992 101.464H189.167C189.167 101.723 189.77 102.755 190.976 104.562C192.26 106.481 192.998 107.782 193.188 108.466H193.298C193.181 107.377 193.122 106.4 193.122 105.536C193.122 104.213 193.088 102.855 193.02 101.464H194.851C194.782 102.675 194.748 104.191 194.748 106.012C194.748 107.848 194.782 109.511 194.851 111ZM204.511 110.751C203.349 111.049 202.377 111.198 201.596 111.198C199.917 111.198 198.642 110.739 197.773 109.821C196.909 108.898 196.477 107.78 196.477 106.466C196.477 105.084 196.948 103.883 197.89 102.863C198.837 101.842 200.148 101.332 201.823 101.332C202.609 101.332 203.303 101.403 203.903 101.544L203.662 103.273C202.895 103.073 202.207 102.973 201.596 102.973C200.566 102.973 199.797 103.29 199.289 103.925C198.781 104.555 198.527 105.326 198.527 106.239C198.527 107.172 198.811 107.985 199.377 108.678C199.948 109.372 200.734 109.718 201.735 109.718C202.014 109.718 202.336 109.689 202.702 109.63C202.629 109.088 202.592 108.556 202.592 108.034C202.592 107.506 202.541 106.913 202.438 106.254H204.511C204.472 107.006 204.453 107.763 204.453 108.524C204.453 109.076 204.472 109.818 204.511 110.751ZM214.611 111H212.268C212.268 110.678 212.045 109.765 211.601 108.261H208.217C207.758 109.74 207.529 110.653 207.529 111H205.324C205.324 110.81 205.893 109.247 207.031 106.312C208.173 103.378 208.745 101.762 208.745 101.464H211.513C211.513 101.742 212.028 103.336 213.059 106.247C214.094 109.152 214.611 110.736 214.611 111ZM211.228 106.862C210.393 104.342 209.975 102.98 209.975 102.775H209.858C209.858 102.965 209.426 104.328 208.562 106.862H211.228ZM221.972 108.4C221.972 110.309 220.6 111.264 217.856 111.264C216.923 111.264 216.057 111.151 215.256 110.927L215.615 109.293C216.406 109.567 217.153 109.704 217.856 109.704C218.637 109.704 219.199 109.628 219.541 109.477C219.882 109.325 220.053 109.071 220.053 108.715C220.053 108.344 219.892 108.031 219.57 107.777C219.292 107.553 218.728 107.26 217.878 106.898C217.106 106.566 216.533 106.205 216.157 105.814C215.683 105.321 215.446 104.713 215.446 103.991C215.446 103.151 215.756 102.494 216.376 102.021C217.001 101.547 217.897 101.31 219.064 101.31C220.021 101.31 220.825 101.391 221.474 101.552L221.203 103.178C220.544 102.938 219.831 102.819 219.064 102.819C217.912 102.819 217.336 103.126 217.336 103.742C217.336 104.069 217.47 104.335 217.739 104.54C217.973 104.716 218.483 104.962 219.27 105.28C220.104 105.617 220.729 105.988 221.145 106.393C221.696 106.935 221.972 107.604 221.972 108.4Z" fill="#78748E"/>
<path d="M401 205.5C401 217.295 398.122 228.911 392.617 239.342C387.112 249.772 379.144 258.703 369.407 265.357C359.669 272.012 348.455 276.191 336.736 277.531C325.018 278.871 313.15 277.331 302.161 273.046L308.219 257.511C316.681 260.81 325.819 261.995 334.842 260.964C343.865 259.932 352.5 256.714 359.998 251.59C367.496 246.466 373.631 239.59 377.87 231.558C382.109 223.526 384.325 214.582 384.325 205.5H401Z" fill="#F95C5C"/>
<path d="M401 205.5C401 217.295 398.122 228.911 392.617 239.342C387.112 249.772 379.144 258.703 369.407 265.357C359.669 272.012 348.455 276.191 336.736 277.531C325.018 278.871 313.15 277.331 302.161 273.046L308.219 257.511C316.681 260.81 325.819 261.995 334.842 260.964C343.865 259.932 352.5 256.714 359.998 251.59C367.496 246.466 373.631 239.59 377.87 231.558C382.109 223.526 384.325 214.582 384.325 205.5H401Z" fill="#F95C5C"/>
<path d="M309.904 275.574C295.634 271.788 282.861 263.734 273.291 252.492C263.722 241.25 257.813 227.354 256.355 212.662L272.948 211.015C274.071 222.327 278.621 233.027 285.989 241.684C293.358 250.341 303.193 256.541 314.181 259.457L309.904 275.574Z" fill="#F95C5C"/>
<path d="M309.904 275.574C295.634 271.788 282.861 263.734 273.291 252.492C263.722 241.25 257.813 227.354 256.355 212.662L272.948 211.015C274.071 222.327 278.621 233.027 285.989 241.684C293.358 250.341 303.193 256.541 314.181 259.457L309.904 275.574Z" fill="#32C680"/>
<path d="M256.894 216.85C255.171 205.977 255.946 194.855 259.161 184.326C262.376 173.797 267.947 164.139 275.45 156.084L287.652 167.449C281.874 173.652 277.585 181.089 275.109 189.196C272.633 197.303 272.036 205.868 273.363 214.24L256.894 216.85Z" fill="#F95C5C"/>
<path d="M256.894 216.85C255.171 205.977 255.946 194.855 259.161 184.326C262.376 173.797 267.947 164.139 275.45 156.084L287.652 167.449C281.874 173.652 277.585 181.089 275.109 189.196C272.633 197.303 272.036 205.868 273.363 214.24L256.894 216.85Z" fill="#F2AF4D"/>
<path d="M272.453 159.511C279.731 150.642 289.009 143.626 299.526 139.041C310.043 134.456 321.497 132.433 332.949 133.137L331.925 149.78C323.108 149.238 314.288 150.796 306.19 154.327C298.092 157.857 290.948 163.259 285.344 170.089L272.453 159.511Z" fill="#F95C5C"/>
<path d="M272.453 159.511C279.731 150.642 289.009 143.626 299.526 139.041C310.043 134.456 321.497 132.433 332.949 133.137L331.925 149.78C323.108 149.238 314.288 150.796 306.19 154.327C298.092 157.857 290.948 163.259 285.344 170.089L272.453 159.511Z" fill="#E9EDF2"/>
<path d="M272.453 159.511C279.731 150.642 289.009 143.626 299.526 139.041C310.043 134.456 321.497 132.433 332.949 133.137L331.925 149.78C323.108 149.238 314.288 150.796 306.19 154.327C298.092 157.857 290.948 163.259 285.344 170.089L272.453 159.511Z" fill="#E9EDF2"/>
<path d="M331.5 129C342.204 129 352.785 131.216 362.542 135.5C372.299 139.784 381.009 146.039 388.094 153.85C395.179 161.661 400.477 170.849 403.636 180.805C406.796 190.761 407.744 201.257 406.419 211.597L381.461 208.566C382.344 201.671 381.711 194.672 379.605 188.033C377.498 181.393 373.965 175.266 369.24 170.057C364.516 164.849 358.707 160.677 352.201 157.82C345.694 154.963 338.638 153.486 331.5 153.486L331.5 129Z" fill="#F95C5C"/>
<path d="M331.5 129C342.204 129 352.785 131.216 362.542 135.5C372.299 139.784 381.009 146.039 388.094 153.85C395.179 161.661 400.477 170.849 403.636 180.805C406.796 190.761 407.744 201.257 406.419 211.597L381.461 208.566C382.344 201.671 381.711 194.672 379.605 188.033C377.498 181.393 373.965 175.266 369.24 170.057C364.516 164.849 358.707 160.677 352.201 157.82C345.694 154.963 338.638 153.486 331.5 153.486L331.5 129Z" fill="#E9EDF2"/>
<path d="M331.5 129C342.204 129 352.785 131.216 362.542 135.5C372.299 139.784 381.009 146.039 388.094 153.85C395.179 161.661 400.477 170.849 403.636 180.805C406.796 190.761 407.744 201.257 406.419 211.597L381.461 208.566C382.344 201.671 381.711 194.672 379.605 188.033C377.498 181.393 373.965 175.266 369.24 170.057C364.516 164.849 358.707 160.677 352.201 157.82C345.694 154.963 338.638 153.486 331.5 153.486L331.5 129Z" fill="#0166ED"/>
<path d="M176.546 70.6239C176.543 68.0897 176.53 62.903 176.53 61.0603C176.53 61.0603 176.53 61.0346 176.531 60.9848C164.925 54.4092 147.45 44.4617 139.513 39.9375C132.793 43.7662 119.267 51.4633 111.442 55.8904C111.442 58.0402 111.458 64.4095 111.456 66.2991C118.594 70.3695 137.285 81.0097 148.776 87.5171C156.934 82.8987 170.271 75.3078 176.547 71.73V71.6327C176.547 71.3861 176.547 71.0408 176.546 70.6239Z" fill="white"/>
<path d="M139.358 40.0249C132.611 43.8692 119.304 51.4411 111.526 55.8425C117.42 59.2044 138.731 71.3377 148.61 76.9175C155.823 72.8461 171.618 63.8596 176.53 61.0594C176.53 61.0594 176.53 61.0338 176.531 60.9839C164.925 54.4084 147.45 44.4609 139.513 39.9367L139.358 40.0249Z" fill="#F3736F"/>
<path d="M176.977 70.6239C176.974 68.9134 176.971 67.2028 176.967 65.4922C176.964 63.9909 176.928 62.4853 176.962 60.9842C176.962 60.9101 176.942 60.8373 176.904 60.7731C176.867 60.7088 176.813 60.6553 176.748 60.6179C171.624 57.7142 166.502 54.8064 161.382 51.8944C156.304 49.0078 151.227 46.1193 146.152 43.2288C144.011 42.01 141.871 40.7906 139.73 39.5707C139.664 39.5332 139.589 39.5134 139.513 39.5134C139.437 39.5134 139.362 39.5332 139.296 39.5707C135.885 41.5141 132.473 43.4564 129.061 45.3975C125.064 47.6712 121.066 49.943 117.068 52.213C115.121 53.318 113.173 54.4219 111.225 55.5244C111.16 55.562 111.106 55.6155 111.069 55.6797C111.032 55.7439 111.012 55.8166 111.011 55.8906C111.011 58.34 111.015 60.7894 111.023 63.2387C111.024 63.8432 111.025 64.4479 111.025 65.0526C110.993 65.4865 110.996 65.9223 111.034 66.3557C111.083 66.6447 111.405 66.7599 111.637 66.8926L112.227 67.2283L113.526 67.9686C115.703 69.2098 117.881 70.4506 120.06 71.6908C122.739 73.2159 125.418 74.7405 128.098 76.2646C130.946 77.8845 133.795 79.5038 136.644 81.1223C139.383 82.6784 142.122 84.2335 144.861 85.7875C146.078 86.4773 147.277 87.2308 148.525 87.8638C148.893 88.0504 149.239 87.7452 149.554 87.5669L150.458 87.0552C151.093 86.6956 151.727 86.3358 152.362 85.9761C155.188 84.3733 158.013 82.7688 160.837 81.1624C163.673 79.5508 166.508 77.9381 169.342 76.3242C171.663 75.0032 173.983 73.6814 176.303 72.3588C176.549 72.2188 176.92 72.0903 176.971 71.7852C177.005 71.3985 177.007 71.0097 176.977 70.6227C176.977 70.0768 176.116 70.076 176.116 70.6227C176.116 70.9915 176.116 71.3602 176.116 71.7288L176.329 71.3625C173.049 73.2324 169.768 75.1008 166.486 76.9678C162.51 79.2297 158.533 81.4901 154.556 83.7491C152.557 84.8835 150.558 86.017 148.558 87.1496H148.993C143.762 84.1872 138.534 81.2197 133.309 78.2471C128.146 75.3131 122.985 72.3766 117.825 69.4377C115.774 68.27 113.724 67.1017 111.674 65.9329L111.887 66.2991C111.889 63.4758 111.878 60.6525 111.874 57.8294C111.873 57.1831 111.872 56.5367 111.872 55.8904L111.659 56.2566C115.336 54.1764 119.011 52.0919 122.683 50.0033C126.608 47.773 130.532 45.5409 134.455 43.3073C136.214 42.3061 137.972 41.3047 139.73 40.3029H139.296C143.543 42.7244 147.792 45.144 152.042 47.5615C157.364 50.5898 162.687 53.6159 168.011 56.6398C170.778 58.2111 173.545 59.7812 176.314 61.3502L176.1 60.9839C176.067 62.4851 176.103 63.9907 176.106 65.492C176.109 67.2026 176.113 68.9132 176.116 70.6237C176.116 71.1698 176.978 71.1706 176.977 70.6239Z" fill="#211715"/>
<path d="M148.265 76.8891C148.265 79.8205 148.27 82.752 148.28 85.6834C148.281 86.2772 148.282 86.8702 148.283 87.4624C148.283 88.0082 149.144 88.009 149.144 87.4624C149.144 84.5996 149.133 81.7369 149.128 78.8752C149.127 78.2132 149.126 77.5511 149.126 76.8891C149.126 76.3435 148.265 76.3424 148.265 76.8891Z" fill="#211715"/>
<path d="M111.739 56.4519C113.477 57.4439 115.216 58.4351 116.955 59.4253C119.401 60.8188 121.847 62.2113 124.294 63.6028C127.071 65.1832 129.849 66.7629 132.626 68.342C135.359 69.8951 138.093 71.4474 140.827 72.9987C143.139 74.3105 145.452 75.6207 147.766 76.9294L148.478 77.3323C148.96 77.6041 149.394 76.8715 148.913 76.5999C146.676 75.3367 144.441 74.0715 142.207 72.8041C139.504 71.2713 136.802 69.7375 134.101 68.2025C131.307 66.6152 128.515 65.0273 125.723 63.4387C123.215 62.011 120.708 60.5832 118.201 59.1552C116.355 58.1037 114.509 57.0515 112.663 55.9985L112.174 55.7195C111.693 55.4453 111.259 56.1779 111.739 56.4519Z" fill="#211715"/>
<path d="M148.7 80.096C146.771 79.0065 144.843 77.9148 142.916 76.821C140.565 75.4879 138.215 74.1536 135.865 72.8181C133.442 71.4413 131.019 70.0636 128.597 68.6851C126.41 67.4411 124.223 66.1963 122.036 64.9508C120.433 64.0379 118.831 63.1246 117.228 62.2111L116.801 61.9672C116.32 61.6931 115.886 62.4259 116.366 62.6997C117.874 63.5602 119.383 64.4201 120.893 65.2795C123.026 66.4945 125.159 67.7089 127.292 68.9228C129.703 70.2941 132.113 71.6648 134.524 73.035C136.902 74.3866 139.28 75.7373 141.659 77.0869C143.654 78.2193 145.651 79.3503 147.649 80.4798L148.266 80.828C148.747 81.1001 149.182 80.3674 148.7 80.0956V80.096Z" fill="#211715"/>
<path d="M146.337 82.1911C144.468 81.1356 142.602 80.0754 140.739 79.0103C140.258 78.7361 139.824 79.4689 140.304 79.7427C142.168 80.8059 144.034 81.8662 145.902 82.9235C146.384 83.1956 146.818 82.4629 146.337 82.1911Z" fill="#211715"/>
<path d="M164.705 79.6632C163.711 80.2256 160.486 82.0594 159.019 82.8919C157.604 82.0912 155.094 80.6666 153.22 79.6015C154.991 78.598 156.939 77.493 158.91 76.3727C160.833 77.4667 163.359 78.9021 164.705 79.6632Z" fill="#F8B8B4"/>
<path d="M153.22 80.026H153.222L153.004 79.9681C154.805 80.9936 156.608 82.0168 158.412 83.0376C158.577 83.1597 158.764 83.2516 158.962 83.3088C159.177 83.3375 159.377 83.1788 159.555 83.0777L160.574 82.4994C161.346 82.0612 162.117 81.6229 162.889 81.1847C163.567 80.7999 164.244 80.4152 164.922 80.0307C164.986 79.9925 165.039 79.9388 165.076 79.8746C165.112 79.8105 165.132 79.7381 165.132 79.6645C165.132 79.5908 165.112 79.5184 165.076 79.4543C165.039 79.3901 164.986 79.3364 164.922 79.2983C162.989 78.2049 161.057 77.1081 159.127 76.0078C158.646 75.7345 158.212 76.4671 158.692 76.7402C160.623 77.8383 162.555 78.9351 164.488 80.0307V79.2983C162.591 80.3714 160.696 81.4476 158.803 82.527H159.238C158.29 81.9908 157.343 81.4536 156.395 80.9154C155.864 80.6141 155.333 80.3126 154.802 80.011L154.011 79.5614C153.79 79.4357 153.481 79.1778 153.22 79.1778C152.666 79.1778 152.665 80.026 153.22 80.026H153.22Z" fill="#211715"/>
<path d="M172.755 68.0076C170.105 69.5187 167.455 71.0278 164.803 72.5348C161.237 74.5624 157.67 76.5881 154.102 78.6118C152.257 79.658 150.41 80.703 148.564 81.7471C148.083 82.0183 148.516 82.7516 148.998 82.4795C152.409 80.5569 155.815 78.6264 159.217 76.6881C162.587 74.7742 165.957 72.8586 169.325 70.9414C170.613 70.2078 171.902 69.474 173.19 68.7398C173.669 68.4665 173.236 67.7332 172.755 68.0074L172.755 68.0076Z" fill="#211715"/>
<path d="M148.874 77.257C152.616 75.145 156.355 73.0263 160.089 70.9011C164.118 68.613 168.146 66.3228 172.173 64.0305C173.697 63.1625 175.222 62.2942 176.747 61.4255C177.226 61.1521 176.793 60.4188 176.312 60.693C173.13 62.5066 169.948 64.3182 166.764 66.1278C162.581 68.5066 158.397 70.8832 154.211 73.2577C152.288 74.3481 150.364 75.437 148.439 76.5244C147.958 76.7958 148.392 77.5289 148.874 77.2568L148.874 77.257Z" fill="#211715"/>
<path d="M167.467 55.078C167.464 53.1861 167.454 49.314 167.454 47.9375C167.454 47.9375 167.454 47.9184 167.455 47.8813C158.791 42.972 145.745 35.5459 139.819 32.1681C134.802 35.0281 124.704 40.7747 118.862 44.0785C118.862 45.6836 118.875 50.4385 118.873 51.8493C124.202 54.888 138.156 62.8316 146.735 67.6897C152.825 64.242 162.783 58.575 167.468 55.904V55.8306C167.467 55.647 167.467 55.3893 167.467 55.078Z" fill="white"/>
<path d="M139.443 32.3825C134.312 35.3061 124.562 40.8542 118.862 44.0785C118.862 45.6836 118.875 50.4385 118.873 51.8493C121.191 53.1708 125.139 55.4201 129.568 57.9397C129.565 56.0032 129.557 51.725 129.556 50.0973C138.563 44.973 146.152 40.6515 150.432 38.2112C146.192 35.7987 142.354 33.613 139.819 32.1676L139.443 32.3825Z" fill="#F8B8B4"/>
<path d="M167.897 55.078C167.894 52.6818 167.833 50.2775 167.886 47.8813C167.886 47.8072 167.866 47.7344 167.829 47.6702C167.791 47.6059 167.737 47.5525 167.672 47.5151C163.848 45.3478 160.025 43.1777 156.204 41.005C152.413 38.8501 148.624 36.6942 144.835 34.5374C143.236 33.6254 141.636 32.7136 140.037 31.8021C139.971 31.7646 139.896 31.7448 139.819 31.7448C139.743 31.7448 139.668 31.7646 139.602 31.8021C137.052 33.2551 134.502 34.7071 131.95 36.1583C128.974 37.8514 125.997 39.5431 123.019 41.2334C121.562 42.0604 120.104 42.8867 118.645 43.7123C118.58 43.7499 118.527 43.8034 118.489 43.8676C118.452 43.9318 118.432 44.0045 118.432 44.0785C118.432 45.9286 118.435 47.7788 118.44 49.6289C118.441 50.0769 118.442 50.5248 118.442 50.9726C118.442 51.2742 118.376 51.6686 118.458 51.9619C118.546 52.2753 119.145 52.4943 119.417 52.6489L120.407 53.2138C124.037 55.2822 127.667 57.3491 131.298 59.4143C135.463 61.7831 139.629 64.1498 143.796 66.5143L145.222 67.3227L145.879 67.6946C146.099 67.839 146.329 67.9671 146.569 68.0778C146.853 68.186 147.119 67.962 147.356 67.8278L148.072 67.4219C148.555 67.1484 149.038 66.8747 149.521 66.6008C151.623 65.4081 153.726 64.2143 155.827 63.0195C159.676 60.8315 163.524 58.6415 167.371 56.4496C167.606 56.3154 167.876 56.211 167.898 55.9044C167.917 55.6321 167.898 55.3514 167.898 55.0787C167.898 54.5328 167.037 54.5318 167.037 55.0787C167.037 55.3539 167.037 55.6291 167.037 55.9044L167.25 55.5382C164.807 56.9309 162.362 58.3227 159.918 59.7135C156.944 61.4057 153.969 63.0967 150.993 64.7865C149.501 65.633 148.009 66.4788 146.517 67.324H146.952C143.052 65.1152 139.153 62.9028 135.257 60.6866C131.408 58.4982 127.559 56.3084 123.711 54.117C122.17 53.2389 120.63 52.3611 119.091 51.4835L119.304 51.8497C119.305 49.7478 119.298 47.6461 119.294 45.5445C119.294 45.0559 119.294 44.5674 119.293 44.079L119.08 44.4452C121.829 42.8901 124.576 41.3318 127.321 39.7702C130.244 38.1097 133.166 36.4478 136.087 34.7844C137.404 34.0351 138.72 33.2853 140.037 32.5349H139.602C142.772 34.3421 145.944 36.1479 149.116 37.9525C153.088 40.2129 157.061 42.4715 161.034 44.7285C163.101 45.9019 165.169 47.0752 167.238 48.2486L167.025 47.8824C166.971 50.2786 167.032 52.682 167.036 55.0791C167.037 55.6236 167.898 55.6247 167.897 55.078Z" fill="#211715"/>
<path d="M146.244 59.7553C146.244 61.5499 146.257 63.3447 146.257 65.1394C146.257 65.6852 147.118 65.686 147.118 65.1394C147.118 63.3447 147.105 61.5499 147.105 59.7553C147.105 59.2095 146.244 59.2086 146.244 59.7553Z" fill="#211715"/>
<path d="M146.975 59.4932C143.707 57.6476 140.442 55.7965 137.181 53.9397C133.662 51.9403 130.145 49.9392 126.628 47.9365C125.296 47.178 123.964 46.4191 122.633 45.6598C122.153 45.3857 121.718 46.1185 122.198 46.3923C124.977 47.977 127.756 49.5599 130.536 51.1408C134.189 53.2189 137.843 55.2955 141.499 57.3705C143.178 58.3235 144.858 59.2752 146.54 60.2256C147.022 60.4975 147.456 59.7649 146.975 59.4932Z" fill="#211715"/>
<path d="M146.863 60.1228C149.225 58.7897 151.584 57.4525 153.942 56.1112C156.476 54.6722 159.009 53.2318 161.541 51.7901C162.511 51.2388 163.481 50.6866 164.45 50.1336C164.93 49.8602 164.497 49.1269 164.016 49.4011C162.007 50.5462 159.999 51.6896 157.989 52.8313C155.359 54.3269 152.729 55.8211 150.097 57.3141C148.874 58.0069 147.652 58.6989 146.428 59.3904C145.948 59.6616 146.381 60.3949 146.863 60.1228Z" fill="#211715"/>
<path d="M129.797 50.4495C132.949 48.6567 136.1 46.8633 139.251 45.0695C141.81 43.6134 144.369 42.1561 146.928 40.6978C148.022 40.0743 149.116 39.4507 150.21 38.8268C150.69 38.5535 150.257 37.8202 149.776 38.0944C147.66 39.3017 145.544 40.5076 143.427 41.7122C140.579 43.3339 137.732 44.955 134.884 46.5757L129.363 49.7171C128.883 49.99 129.317 50.7233 129.798 50.4495H129.797Z" fill="#211715"/>
<path d="M129.124 50.0937C129.127 52.499 129.137 54.9043 129.137 57.3097C129.137 57.8553 129.999 57.8564 129.999 57.3097C129.999 54.9043 129.988 52.499 129.985 50.0937C129.985 49.5479 129.124 49.547 129.124 50.0937Z" fill="#211715"/>
<path d="M142.716 50.2368C142.693 50.6911 142.575 51.1359 142.372 51.5441C141.944 52.3711 141.119 52.9373 140.25 53.2976C139.381 53.6579 139.257 53.5646 138.358 53.8439C137.657 54.0616 136.923 54.3753 136.623 55.0738C136.497 55.4317 136.422 55.8051 136.401 56.1832C136.336 57.614 136.348 59.1024 136.33 60.5749C136.331 60.6776 136.299 60.7781 136.238 60.8616C136.177 60.9451 136.091 61.0074 135.992 61.0393C134.967 61.3334 133.887 61.3901 132.836 61.2049C132.728 61.1695 132.631 61.1055 132.556 61.0198C132.443 60.9142 132.361 60.7799 132.32 60.6315C132.239 59.9631 132.2 59.3193 132.177 58.6749C131.425 58.8392 130.565 59.1234 129.765 58.9313C129.209 58.7974 128.688 58.3799 128.602 57.8224L128.532 57.3618C128.407 55.11 128.283 55.3936 128.159 53.142C128.117 52.3841 128.084 51.5853 128.435 50.9099C128.738 50.4046 129.155 49.9756 129.655 49.6568C130.619 48.9626 131.665 48.3854 132.769 47.9377C132.769 47.9377 141.278 49.9478 142.716 50.2368Z" fill="#F3736F"/>
<path d="M140.977 50.9915C141.472 50.7184 142.11 50.4109 142.726 50.0474C143.748 49.4454 144.719 48.6841 144.92 47.6627C144.989 47.2207 144.987 46.7708 144.913 46.3295C144.717 44.7662 144.341 42.7706 143.352 41.4847C142.749 40.6975 141.798 39.6822 140.87 39.2138C140.87 39.2138 139.26 38.4462 137.696 38.3459C135.185 38.1845 133.9 39.2388 133.9 39.2388C132.444 40.3246 131.435 41.8906 131.057 43.6496L130.619 46.1331L130.461 47.0303L140.977 50.9915Z" fill="white"/>
<path d="M130.911 63.2294C130.865 63.0074 130.869 62.7782 130.922 62.5578C130.975 62.3374 131.076 62.131 131.218 61.953C131.544 61.5721 131.942 61.257 132.389 61.0251C132.841 61.3739 134.678 61.4411 135.993 61.0399C136.038 61.0265 136.08 61.0064 136.118 60.9803C136.135 61.1315 136.145 61.2248 136.145 61.2248C136.282 62.4548 135.525 62.9493 135.045 63.2307C134.473 63.5652 133.857 63.8206 133.215 63.9896C132.829 64.1069 132.422 64.1461 132.021 64.1048C131.82 64.0815 131.627 64.0154 131.455 63.911C131.283 63.8067 131.136 63.6666 131.024 63.5006C130.974 63.4159 130.936 63.3246 130.911 63.2294Z" fill="white"/>
<path d="M127.065 60.5647C127.123 60.4025 127.206 60.2499 127.311 60.1122C127.665 59.7077 128.096 59.3753 128.579 59.134C128.826 58.9667 129.105 58.8525 129.399 58.7987C129.516 58.8565 129.64 58.9011 129.767 58.9319C130.567 59.124 131.426 58.8401 132.179 58.6755C132.195 59.1401 132.22 59.6041 132.263 60.0774L131.925 60.1323C131.95 60.6625 131.473 61.076 131.009 61.3472C130.457 61.6706 129.861 61.9175 129.24 62.0807C128.866 62.1944 128.474 62.2319 128.085 62.191C127.891 62.169 127.704 62.1054 127.538 62.0045C127.372 61.9037 127.23 61.7681 127.123 61.6074C127.036 61.4483 126.986 61.2725 126.976 61.0924C126.966 60.9123 126.996 60.7322 127.065 60.5647Z" fill="white"/>
<path d="M135.714 61.2248C135.758 61.4907 135.729 61.7632 135.631 62.0145C135.532 62.2658 135.368 62.4869 135.154 62.6552C134.535 63.0894 133.838 63.4035 133.099 63.5806C132.502 63.7364 131.315 63.8386 131.303 62.9368C131.293 62.131 132.137 61.6644 132.747 61.309C133.224 61.0315 132.79 60.298 132.312 60.5766C131.592 60.996 130.868 61.4662 130.563 62.273C130.409 62.6424 130.399 63.0546 130.535 63.4308C130.67 63.807 130.942 64.1206 131.298 64.3117C132.126 64.7386 133.101 64.5098 133.933 64.2125C134.612 63.9914 135.247 63.6552 135.809 63.2192C136.093 62.9741 136.311 62.6642 136.445 62.3166C136.578 61.9691 136.623 61.5945 136.575 61.2259C136.572 61.1143 136.526 61.0081 136.446 60.9292C136.366 60.8503 136.258 60.8047 136.145 60.8018C136.031 60.8026 135.922 60.8476 135.841 60.9269C135.761 61.0063 135.715 61.1137 135.714 61.2259L135.714 61.2248Z" fill="#211715"/>
<path d="M129.227 58.3977C128.847 58.4992 128.486 58.6641 128.162 58.8855C127.839 59.0682 127.538 59.2848 127.262 59.5316C126.732 60.0293 126.383 60.806 126.618 61.5249C126.866 62.2853 127.676 62.6545 128.443 62.6346C129.269 62.6134 130.117 62.2885 130.844 61.9219C131.56 61.5614 132.362 61.0138 132.356 60.1323C132.352 59.5867 131.491 59.5854 131.495 60.1323C131.499 60.7553 130.565 61.1309 130.095 61.3389C129.755 61.4876 129.402 61.6065 129.04 61.6941C128.676 61.8115 128.284 61.8182 127.916 61.7134C127.294 61.4835 127.31 60.8168 127.664 60.3522C127.888 60.0876 128.16 59.8656 128.466 59.6972C128.765 59.4802 129.101 59.3172 129.458 59.2156C130 59.1066 129.771 58.2889 129.229 58.3977H129.227Z" fill="#211715"/>
<path d="M132.656 47.5291C131.433 48.0193 130.279 48.6649 129.225 49.4495C128.697 49.8082 128.271 50.2939 127.988 50.8605C127.756 51.4556 127.661 52.0942 127.711 52.7299C127.742 53.645 127.831 54.5536 127.943 55.4618C128.044 56.2825 128.039 57.1188 128.188 57.9321C128.255 58.2221 128.392 58.4916 128.589 58.7171C128.785 58.9426 129.035 59.1172 129.316 59.2256C130.04 59.5316 130.837 59.4177 131.58 59.2521C132.121 59.1319 131.892 58.314 131.352 58.4342C130.548 58.6132 129.191 58.7523 129.013 57.6676C128.895 56.952 128.896 56.2138 128.807 55.4862C128.714 54.7228 128.638 53.9626 128.594 53.195C128.534 52.6545 128.552 52.1082 128.65 51.573C128.793 51.0582 129.106 50.6045 129.538 50.2824C130.548 49.4749 131.677 48.8227 132.885 48.3478C132.993 48.315 133.085 48.2428 133.141 48.1458C133.197 48.0489 133.213 47.9346 133.187 47.8262C133.156 47.718 133.083 47.6261 132.984 47.5705C132.885 47.5149 132.767 47.5001 132.657 47.5293L132.656 47.5291Z" fill="#211715"/>
<path d="M132.567 51.6188C131.829 52.1239 131.644 52.9159 131.631 53.7484C131.617 54.593 131.663 55.437 131.689 56.2808C131.724 57.3877 131.72 58.4961 131.795 59.6016C131.83 60.1135 131.792 60.7392 132.122 61.1636C132.438 61.5707 132.827 61.6562 133.318 61.7071C133.789 61.7524 134.264 61.7508 134.735 61.7022C135.225 61.6733 135.709 61.5797 136.174 61.4237C136.736 61.2081 136.761 60.6775 136.766 60.1644C136.771 59.5814 136.773 58.9981 136.779 58.4153C136.785 57.8388 136.794 57.2622 136.813 56.6858C136.8 56.2138 136.864 55.7427 137 55.2901C137.288 54.5235 138.308 54.2709 139.026 54.1002C139.958 53.8789 140.854 53.5913 141.63 53.013C142.099 52.6678 142.481 52.2206 142.745 51.7062C143.01 51.1918 143.151 50.6241 143.156 50.0475C143.178 49.5016 142.317 49.5025 142.295 50.0475C142.293 50.4815 142.191 50.9094 141.997 51.2989C141.803 51.6885 141.521 52.0295 141.173 52.2963C140.557 52.7499 139.847 53.064 139.093 53.2162C138.326 53.3841 137.51 53.5979 136.882 54.0856C136.184 54.6263 136.012 55.4527 135.967 56.2855C135.911 57.3366 135.917 58.3922 135.91 59.4451C135.908 59.7025 135.906 59.9599 135.904 60.2174C135.919 60.3372 135.917 60.4584 135.9 60.5779C135.875 60.6459 135.885 60.6203 135.84 60.6451C135.643 60.722 135.435 60.7704 135.223 60.7889C135.005 60.8277 134.784 60.855 134.563 60.8707C134.148 60.9046 133.732 60.9013 133.318 60.861C133.182 60.8598 133.048 60.8324 132.923 60.7804C132.723 60.6629 132.728 60.4354 132.708 60.2379C132.609 59.2394 132.593 58.2359 132.573 57.2338C132.554 56.2814 132.505 55.3299 132.492 54.3776C132.487 54.019 132.481 53.6577 132.509 53.2997C132.511 53.27 132.514 53.2404 132.517 53.2109C132.525 53.1261 132.511 53.2367 132.519 53.1969C132.54 53.0838 132.571 52.9729 132.612 52.8652C132.688 52.6606 132.823 52.4825 133.001 52.3533C133.453 52.0439 133.022 51.3083 132.566 51.6209L132.567 51.6188Z" fill="#211715"/>
<path d="M133.682 38.8726C132.135 40.0187 131.057 41.6732 130.643 43.5357C130.528 44.0681 131.358 44.2957 131.473 43.7613C131.824 42.1102 132.762 40.6366 134.117 39.605C134.213 39.5458 134.282 39.4527 134.311 39.3449C134.34 39.2371 134.325 39.1226 134.271 39.0246C134.213 38.9281 134.119 38.858 134.009 38.8296C133.898 38.8011 133.781 38.8166 133.682 38.8726Z" fill="#211715"/>
<path d="M131.04 47.9371C130.561 47.643 130.362 47.1461 130.284 46.6187C130.196 46.0273 130.299 45.2747 131.173 45.0597C131.486 44.9983 131.812 45.0582 132.082 45.227C132.367 45.39 132.597 45.6306 132.746 45.9197C132.894 46.2088 132.955 46.534 132.92 46.8562C132.861 47.5571 132.19 48.1996 131.483 48.098C131.326 48.0753 131.175 48.0205 131.04 47.9371Z" fill="white"/>
<path d="M131.257 47.5709C131.159 47.5087 131.071 47.4304 130.999 47.3395C131.038 47.3868 130.982 47.3139 130.974 47.302C130.953 47.2716 130.934 47.2406 130.916 47.2089C130.901 47.1837 130.887 47.1578 130.874 47.1317C130.874 47.1317 130.82 47.0123 130.844 47.0721C130.795 46.9467 130.757 46.8173 130.731 46.6853C130.723 46.6482 130.716 46.6109 130.709 46.5736C130.705 46.5447 130.693 46.4421 130.706 46.556C130.7 46.5023 130.694 46.4487 130.691 46.3948C130.687 46.2958 130.689 46.1967 130.698 46.0979C130.704 46.0184 130.698 46.0979 130.696 46.1121C130.702 46.085 130.706 46.0579 130.712 46.0307C130.725 45.9711 130.745 45.9147 130.764 45.8566C130.733 45.952 130.782 45.8214 130.799 45.793C130.815 45.7646 130.902 45.6577 130.838 45.7275C130.874 45.6885 130.911 45.6513 130.95 45.6162C131 45.5716 130.866 45.6637 130.965 45.6049C130.999 45.5852 131.03 45.564 131.065 45.5458C131.089 45.5332 131.114 45.5209 131.138 45.5103C131.077 45.5368 131.144 45.5103 131.155 45.5065C131.219 45.4858 131.284 45.4687 131.35 45.4554C131.254 45.4715 131.39 45.4582 131.425 45.4588C131.461 45.4594 131.496 45.4614 131.532 45.4652C131.562 45.4679 131.561 45.4679 131.528 45.4652C131.551 45.4692 131.574 45.4739 131.596 45.4794C131.721 45.5087 131.839 45.5648 131.94 45.6437C131.945 45.6471 132.005 45.6914 131.962 45.6573C131.985 45.6751 132.007 45.694 132.03 45.7129C132.089 45.7635 132.145 45.8177 132.198 45.8751C132.336 46.0266 132.43 46.212 132.47 46.4118C132.469 46.4048 132.494 46.5365 132.485 46.4773C132.475 46.4181 132.492 46.5543 132.491 46.5464C132.496 46.6118 132.498 46.6773 132.496 46.7428C132.496 46.7803 132.493 46.8181 132.489 46.8556C132.491 46.837 132.505 46.7835 132.487 46.8707C132.472 46.9411 132.453 47.0105 132.429 47.0785C132.386 47.2057 132.448 47.0465 132.413 47.1164C132.393 47.1552 132.372 47.1934 132.35 47.2305C132.324 47.2824 132.289 47.3297 132.248 47.3707C132.199 47.4239 132.147 47.4735 132.091 47.5191C132.137 47.4814 132.082 47.5249 132.074 47.5297C132.038 47.5526 132.002 47.5757 131.964 47.5963C131.869 47.6473 131.763 47.6769 131.655 47.683C131.514 47.6875 131.374 47.6478 131.257 47.5696C131.159 47.5128 131.041 47.497 130.931 47.5255C130.82 47.554 130.726 47.6246 130.668 47.7217C130.61 47.8189 130.594 47.9346 130.623 48.0434C130.652 48.1522 130.724 48.2453 130.823 48.302C131.619 48.7686 132.545 48.4517 133.046 47.731C133.253 47.407 133.362 47.0318 133.36 46.649C133.359 46.2663 133.247 45.8919 133.037 45.5695C132.611 44.9236 131.81 44.4433 131.013 44.6613C130.679 44.7526 130.382 44.9482 130.17 45.2188C129.957 45.4894 129.839 45.8206 129.832 46.1628C129.779 46.9761 130.115 47.851 130.823 48.302C130.922 48.3588 131.039 48.3747 131.15 48.3461C131.204 48.332 131.256 48.3074 131.301 48.2737C131.346 48.2401 131.384 48.198 131.412 48.1499C131.441 48.1018 131.459 48.0486 131.467 47.9934C131.475 47.9383 131.471 47.8821 131.457 47.8282C131.443 47.7743 131.418 47.7238 131.383 47.6794C131.349 47.635 131.306 47.5977 131.258 47.5696L131.257 47.5709Z" fill="#211715"/>
<path d="M133.81 42.341V47.0683C133.81 47.6141 134.671 47.615 134.671 47.0683V42.341C134.671 41.7951 133.81 41.7943 133.81 42.341Z" fill="#211715"/>
<path d="M134.091 47.8724C132.766 48.0936 131.415 48.6025 129.461 48.9217C130.665 49.4931 132.929 50.5907 135.094 51.6572C136.976 50.9027 137.511 50.7712 138.688 50.3267C136.719 49.3258 134.095 47.8718 134.091 47.8724Z" fill="white"/>
<path d="M133.976 47.4636C132.415 47.7299 130.913 48.2528 129.347 48.5126C128.989 48.5722 128.923 49.135 129.244 49.2879C130.517 49.8924 131.785 50.5089 133.05 51.1274C133.43 51.3131 133.81 51.499 134.189 51.6854C134.388 51.7831 134.586 51.8832 134.786 51.9788C134.888 52.0333 135.002 52.0612 135.118 52.0598C135.234 52.0585 135.348 52.0279 135.449 51.971C136.043 51.7352 136.641 51.5099 137.243 51.295C137.763 51.1103 138.286 50.9309 138.803 50.7362C139.121 50.6164 139.263 50.1425 138.906 49.9611C137.886 49.4418 136.876 48.9026 135.87 48.3578C135.352 48.0773 134.842 47.7594 134.309 47.5062C133.811 47.2704 133.374 48.0016 133.874 48.2386C134.407 48.4918 134.917 48.8097 135.435 49.0902C136.442 49.635 137.451 50.1741 138.471 50.6936L138.574 49.9183C137.378 50.3687 136.168 50.7737 134.981 51.2487L135.312 51.2912C133.439 50.3687 131.566 49.4507 129.679 48.5557L129.576 49.3307C131.142 49.0709 132.644 48.548 134.206 48.2817C134.316 48.2511 134.409 48.1793 134.465 48.0817C134.521 47.9841 134.537 47.8685 134.507 47.76C134.475 47.6527 134.401 47.5619 134.302 47.5067C134.203 47.4514 134.087 47.436 133.976 47.4636Z" fill="#211715"/>
<path d="M137.558 49.8367C137.685 48.823 138.763 47.9778 140.145 48.5643C140.354 49.1967 140.717 50.1526 140.94 50.9516C140.636 51.194 140.373 51.4044 140.373 51.4044C139.928 51.9332 138.946 51.838 138.411 51.5178C138.121 51.3466 137.887 51.0974 137.736 50.7996C137.585 50.5018 137.523 50.1678 137.558 49.8367Z" fill="white"/>
<path d="M139.996 48.0588C139.42 47.8776 138.794 47.9238 138.25 48.1875C137.785 48.4312 137.427 48.8357 137.246 49.3233C136.82 50.426 137.494 51.6678 138.591 52.0632C139.262 52.3054 140.18 52.27 140.678 51.7027C140.756 51.6219 140.8 51.5145 140.8 51.4028C140.8 51.2911 140.756 51.1837 140.678 51.1028C140.597 51.0243 140.487 50.9802 140.373 50.9802C140.259 50.9802 140.15 51.0243 140.069 51.1028C140.047 51.1264 140.026 51.148 140.004 51.1711C139.99 51.1868 139.925 51.2379 139.992 51.1879C139.946 51.22 139.898 51.2488 139.849 51.274C139.827 51.285 139.752 51.309 139.83 51.2831C139.806 51.2911 139.782 51.2996 139.758 51.3068C139.696 51.3252 139.632 51.3394 139.568 51.3493C139.654 51.3359 139.568 51.3493 139.545 51.3493C139.512 51.3505 139.479 51.3533 139.445 51.3539C139.385 51.3539 139.325 51.3507 139.264 51.3484C139.243 51.3484 139.155 51.3376 139.239 51.3484C139.212 51.345 139.186 51.3403 139.159 51.3357C139.088 51.3227 139.017 51.3062 138.947 51.2863C138.892 51.2704 138.838 51.2515 138.784 51.2318C138.867 51.2619 138.727 51.2046 138.704 51.1925C138.654 51.166 138.607 51.1364 138.561 51.1041C138.456 51.0324 138.596 51.1338 138.538 51.0869C138.508 51.0626 138.479 51.0382 138.451 51.0125C138.409 50.9754 138.37 50.937 138.331 50.8967C138.315 50.8796 138.299 50.8617 138.283 50.8439C138.283 50.8439 138.209 50.7549 138.249 50.8058C138.289 50.8566 138.221 50.767 138.221 50.7661C138.208 50.7477 138.195 50.729 138.183 50.7101C138.15 50.6595 138.12 50.6071 138.093 50.5532C138.081 50.5292 138.07 50.5049 138.058 50.4807C138.064 50.4934 138.089 50.5655 138.065 50.494C138.049 50.4444 138.031 50.3961 138.017 50.3456C138.006 50.3062 137.998 50.2663 137.989 50.2262C137.988 50.2186 137.973 50.1202 137.983 50.1927C137.992 50.2629 137.98 50.1581 137.98 50.1444C137.976 50.0503 137.977 49.9561 137.985 49.8623C137.98 49.9575 137.983 49.8767 137.993 49.8295C138.004 49.7722 138.018 49.7156 138.036 49.6598C138.047 49.6225 138.062 49.5862 138.075 49.5491C138.105 49.459 138.039 49.606 138.072 49.5561C138.085 49.5362 138.094 49.5114 138.105 49.4904C138.125 49.4511 138.147 49.4128 138.171 49.3757C138.186 49.3511 138.289 49.2134 138.214 49.305C138.27 49.2358 138.331 49.1707 138.396 49.1104C138.413 49.0955 138.516 49.012 138.468 49.048C138.412 49.0904 138.493 49.0317 138.498 49.0283C138.524 49.0118 138.549 48.995 138.575 48.9793C138.618 48.953 138.665 48.9289 138.711 48.9066C138.716 48.9041 138.81 48.8642 138.745 48.8903C138.683 48.9153 138.784 48.8771 138.796 48.8729C138.852 48.854 138.909 48.838 138.966 48.825C139.004 48.8165 139.154 48.7976 139.047 48.8071C139.174 48.7971 139.302 48.7959 139.43 48.8035C139.448 48.8035 139.514 48.8133 139.425 48.801C139.462 48.8064 139.5 48.8127 139.537 48.8199C139.614 48.8351 139.69 48.8549 139.765 48.8771C139.876 48.907 139.993 48.8926 140.093 48.837C140.192 48.7815 140.265 48.6893 140.295 48.5809C140.325 48.4724 140.311 48.3565 140.254 48.2587C140.198 48.1609 140.104 48.0891 139.994 48.0592L139.996 48.0588Z" fill="#211715"/>
<path d="M141.315 45.0841C141.299 44.9709 141.309 45.0349 141.315 45.1009C141.32 45.1564 141.324 45.212 141.328 45.2675C141.34 45.4261 141.348 45.5856 141.356 45.7442C141.372 46.0924 141.384 46.4417 141.376 46.7901C141.374 46.8584 141.372 46.9266 141.367 46.9945C141.365 47.0342 141.362 47.1854 141.362 47.0717C141.362 47.1841 141.324 47.0717 141.378 47.0628C141.318 47.0736 141.202 47.1955 141.139 47.2458C140.706 47.59 140.285 47.9487 139.851 48.2919C139.796 48.3442 139.757 48.4103 139.738 48.483C139.718 48.5557 139.719 48.6323 139.741 48.7045C140.01 49.508 140.314 50.3002 140.541 51.1168C140.559 51.179 140.591 51.2363 140.635 51.2844C140.679 51.3326 140.734 51.3703 140.795 51.3948C140.855 51.4192 140.921 51.4298 140.987 51.4258C141.052 51.4217 141.116 51.4031 141.173 51.3713C142.959 50.3876 145.454 49.3852 145.401 46.9985C145.355 45.9488 145.188 44.9078 144.902 43.8953C144.678 42.9301 144.263 42.0182 143.679 41.212C142.973 40.3002 142.131 39.3902 141.088 38.8484C140.598 38.594 140.162 39.3258 140.653 39.5809C141.485 40.013 142.164 40.7092 142.755 41.4185C143.308 42.0962 143.717 42.8769 143.956 43.7138C144.211 44.5864 144.39 45.4789 144.49 46.3815C144.552 46.8866 144.6 47.4307 144.399 47.9131C144.224 48.2871 143.967 48.6182 143.647 48.8826C142.801 49.6382 141.726 50.0952 140.739 50.6389L141.371 50.8933C141.144 50.0767 140.84 49.2845 140.571 48.481L140.46 48.8937C140.924 48.5266 141.373 48.1411 141.838 47.7759C142.161 47.5234 142.218 47.2767 142.234 46.8876C142.266 46.2107 142.237 45.5324 142.147 44.8606C142.116 44.7524 142.043 44.6605 141.944 44.6049C141.845 44.5493 141.727 44.5345 141.617 44.5637C141.508 44.5959 141.416 44.6681 141.36 44.7652C141.304 44.8623 141.288 44.9769 141.316 45.0854L141.315 45.0841Z" fill="#211715"/>
<path d="M134.059 35.097C133.999 36.3375 134.421 37.5539 135.24 38.4987C135.982 39.3368 137.03 39.8521 138.156 39.9324C139.282 40.0127 140.395 39.6515 141.252 38.9275C141.844 38.9581 142.427 38.7781 142.896 38.4205C143.106 38.2594 143.27 38.0484 143.375 37.8073C143.479 37.5663 143.519 37.3031 143.491 37.0426C143.458 36.8617 143.38 36.6916 143.264 36.5474C143.148 36.4032 142.998 36.2893 142.827 36.2156C143.15 35.3878 143.187 34.4782 142.931 33.6279C142.675 32.7776 142.142 32.0343 141.413 31.5135C139.497 30.1729 136.789 30.3573 135.215 32.1212C134.494 32.953 134.086 34.0037 134.059 35.097Z" fill="white"/>
<path d="M134.683 32.8651C134.403 33.3588 134.213 33.8971 134.123 34.4555C135.261 34.5549 136.408 34.4188 137.49 34.056C137.52 34.0459 137.552 34.0421 137.584 34.0448C137.616 34.0475 137.647 34.0566 137.675 34.0717C137.811 34.147 137.647 34.439 137.57 34.5726C138.053 34.7064 139.234 34.4877 139.756 34.2053C140.046 34.9 140.342 35.262 140.911 35.5243L142.438 36.1233C142.573 36.1307 142.705 36.1627 142.828 36.2177C143.151 35.3897 143.187 34.48 142.931 33.6297C142.675 32.7794 142.141 32.0361 141.413 31.5152C139.496 30.1746 136.789 30.359 135.215 32.1229C135.012 32.3513 134.833 32.6001 134.683 32.8651Z" fill="white"/>
<path d="M143.31 36.1494C143.591 35.2821 143.597 34.3512 143.327 33.4805C143.058 32.6097 142.526 31.8404 141.802 31.2747C141.087 30.7364 140.244 30.3889 139.353 30.2661C138.462 30.1432 137.554 30.2491 136.717 30.5734C134.951 31.2868 133.844 32.9103 133.652 34.7568C133.549 35.6732 133.695 36.6 134.073 37.4431C134.452 38.2863 135.05 39.0157 135.808 39.5573C137.571 40.7696 140.119 40.5563 141.678 39.1175C142.084 38.7435 141.474 38.1446 141.069 38.5176C140.492 39.028 139.773 39.3581 139.005 39.4662C138.237 39.5743 137.453 39.4554 136.754 39.1247C135.304 38.4116 134.495 36.8797 134.486 35.3158C134.478 33.8126 135.204 32.3496 136.55 31.59C137.197 31.2387 137.926 31.0568 138.665 31.0616C139.405 31.0663 140.131 31.2577 140.774 31.6174C141.52 32.0302 142.098 32.685 142.409 33.4702C142.72 34.2555 142.745 35.1227 142.479 35.924C142.309 36.4446 143.14 36.6677 143.31 36.1494Z" fill="#211715"/>
<path d="M142.438 36.5466C142.54 36.5538 142.391 36.5281 142.481 36.5515C142.52 36.5614 142.559 36.5693 142.596 36.5814C142.618 36.5881 142.706 36.6295 142.641 36.5968C142.677 36.6146 142.712 36.6327 142.746 36.6535C142.761 36.6628 142.846 36.723 142.789 36.6783C142.82 36.703 142.849 36.7294 142.877 36.7574C142.906 36.7849 142.933 36.8142 142.958 36.8449C142.907 36.7813 142.973 36.8731 142.982 36.8873C143.003 36.9209 143.021 36.9557 143.038 36.9915C143.004 36.916 143.045 37.0209 143.05 37.0381C143.062 37.0764 143.071 37.1153 143.077 37.1547C143.065 37.0712 143.076 37.1885 143.077 37.2061C143.077 37.2485 143.075 37.2888 143.073 37.3303C143.067 37.4251 143.087 37.2979 143.063 37.3825C143.044 37.4516 143.007 37.5852 142.994 37.6138C142.935 37.7397 142.858 37.8566 142.765 37.961C142.66 38.0778 142.533 38.174 142.392 38.2447C142.248 38.3291 142.092 38.3924 141.929 38.4326C141.839 38.4575 141.747 38.4775 141.655 38.4924C141.624 38.4971 141.624 38.4971 141.655 38.4924C141.632 38.4951 141.609 38.4973 141.586 38.4992C141.534 38.5036 141.481 38.5057 141.428 38.507C141.314 38.507 141.204 38.5517 141.124 38.6312C141.043 38.7108 140.997 38.8186 140.997 38.9311C140.997 39.0436 141.043 39.1515 141.124 39.231C141.204 39.3106 141.314 39.3552 141.428 39.3552C142.455 39.3304 143.493 38.7827 143.842 37.7903C143.926 37.5641 143.956 37.3221 143.931 37.0827C143.905 36.8433 143.824 36.6129 143.694 36.409C143.555 36.2032 143.369 36.0319 143.151 35.9085C142.934 35.7851 142.69 35.7129 142.439 35.6975C142.325 35.6981 142.216 35.743 142.136 35.8224C142.055 35.9018 142.009 36.0093 142.009 36.1216C142.012 36.2333 142.058 36.3396 142.138 36.4186C142.218 36.4976 142.326 36.5431 142.439 36.5457L142.438 36.5466Z" fill="#211715"/>
<path d="M136.775 36.6397C136.77 36.7389 136.742 36.8356 136.694 36.923C136.646 37.0103 136.579 37.0861 136.497 37.1448C136.382 37.2178 136.242 37.2438 136.107 37.2173C136.016 37.2013 135.929 37.1641 135.854 37.1089C135.78 37.0536 135.719 36.9818 135.678 36.8992C135.619 36.7669 135.603 36.6194 135.634 36.4778C135.665 36.3363 135.741 36.2081 135.851 36.1117C135.957 36.0242 136.094 35.9797 136.233 35.9872C136.371 35.9947 136.502 36.0537 136.599 36.1522C136.663 36.2154 136.712 36.292 136.743 36.3763C136.773 36.4606 136.784 36.5506 136.775 36.6397Z" fill="#211715"/>
<path d="M139.393 37.1664C139.388 37.2656 139.36 37.3623 139.312 37.4497C139.264 37.537 139.197 37.6128 139.115 37.6715C139 37.7447 138.86 37.7707 138.725 37.7443C138.633 37.7281 138.547 37.6909 138.472 37.6357C138.398 37.5804 138.337 37.5086 138.296 37.4262C138.237 37.2938 138.221 37.1462 138.252 37.0047C138.283 36.8632 138.359 36.7349 138.469 36.6384C138.575 36.5509 138.712 36.5065 138.851 36.514C138.989 36.5216 139.12 36.5805 139.216 36.6791C139.281 36.7424 139.33 36.8189 139.36 36.9032C139.391 36.9875 139.402 37.0774 139.393 37.1664Z" fill="#211715"/>
<path d="M139.341 34.3172C139.479 34.6792 139.675 35.0175 139.919 35.3198C140.134 35.5619 140.398 35.7562 140.695 35.8896C140.796 35.944 140.914 35.9591 141.026 35.932C141.108 35.9099 141.181 35.8645 141.237 35.8016C141.293 35.7386 141.328 35.6609 141.339 35.5781C141.35 35.4953 141.336 35.4112 141.299 35.3362C141.261 35.2613 141.203 35.1988 141.129 35.1568C140.983 35.0903 140.845 35.0087 140.717 34.9133L140.803 34.9797C140.679 34.8837 140.567 34.7727 140.471 34.6493L140.538 34.7352C140.382 34.5234 140.252 34.2934 140.153 34.0505L140.196 34.1518C140.188 34.1317 140.179 34.1116 140.171 34.0914C140.137 33.9862 140.067 33.8961 139.973 33.8369C139.924 33.8088 139.87 33.7904 139.814 33.7829C139.758 33.7753 139.701 33.7787 139.646 33.7928C139.591 33.8069 139.54 33.8316 139.495 33.8653C139.45 33.899 139.412 33.9411 139.384 33.9892C139.354 34.0377 139.334 34.0919 139.327 34.1481C139.32 34.2044 139.324 34.2615 139.34 34.316L139.341 34.3172Z" fill="#211715"/>
<path d="M139.539 33.8382C139.047 34.0927 138.207 34.2909 137.685 34.1627L137.943 34.7857C138.109 34.4939 138.289 34.0882 138.013 33.7996C137.693 33.4663 137.237 33.701 136.871 33.7996C136.021 34.0182 135.14 34.0996 134.263 34.0407C133.71 34.0104 133.711 34.8586 134.263 34.8889C134.847 34.9231 135.432 34.9032 136.012 34.8296C136.285 34.7942 136.556 34.7484 136.824 34.6864C136.963 34.6546 137.101 34.6193 137.238 34.5804C137.315 34.5592 137.391 34.5348 137.467 34.5104C137.498 34.5009 137.528 34.4909 137.559 34.4805C137.619 34.4593 137.62 34.4593 137.561 34.4805L137.371 34.3715L137.403 34.4002L137.292 34.2131C137.249 34.1118 137.33 34.1207 137.281 34.2057C137.252 34.2557 137.227 34.3081 137.199 34.3586C137.166 34.4149 137.147 34.4777 137.143 34.5422C137.139 34.6068 137.149 34.6714 137.174 34.7313C137.199 34.7913 137.237 34.8449 137.286 34.8882C137.335 34.9315 137.393 34.9634 137.456 34.9814C137.876 35.06 138.309 35.0528 138.726 34.9602C139.16 34.8962 139.581 34.7649 139.974 34.5713C140.464 34.3168 140.03 33.5842 139.539 33.8388L139.539 33.8382Z" fill="#211715"/>
<path d="M121.141 34.0505C121.209 34.2859 121.576 35.6496 121.609 35.6979C121.682 35.805 121.921 35.7516 122.05 35.7272C122.597 35.6127 123.114 35.3856 123.565 35.0608C124.017 34.736 124.393 34.3208 124.67 33.8425C125.17 33.015 125.333 32.0325 125.129 31.0913C125.113 31.0293 125.078 30.9735 125.03 30.9308C124.982 30.888 124.922 30.8603 124.858 30.851C124.01 30.7144 122.723 30.57 121.331 31.3368C120.563 31.7609 119.849 32.8435 119.596 33.6737C120.039 33.7648 120.876 33.9788 121.141 34.0505Z" fill="#F8B8B4"/>
<path d="M120.726 34.1633C120.826 34.5162 120.92 34.8707 121.019 35.2236C121.11 35.5503 121.158 36.0027 121.524 36.1382C121.789 36.2036 122.068 36.1909 122.325 36.1017C122.651 36.0224 122.966 35.904 123.263 35.749C123.833 35.4437 124.331 35.023 124.724 34.5146C125.117 34.0062 125.396 33.4217 125.544 32.7994C125.618 32.4703 125.653 32.1337 125.648 31.7966C125.642 31.4785 125.629 31.0378 125.446 30.763C125.157 30.33 124.418 30.3472 123.949 30.3247C123.302 30.2897 122.653 30.3727 122.036 30.5696C121.333 30.7806 120.704 31.1819 120.22 31.7276C119.753 32.2645 119.4 32.8876 119.181 33.5606C119.152 33.6692 119.167 33.7847 119.223 33.8823C119.28 33.9799 119.373 34.0517 119.482 34.0823C120.001 34.1909 120.516 34.3217 121.028 34.4593C121.563 34.6033 121.791 33.7852 121.256 33.6414C120.745 33.5038 120.23 33.373 119.711 33.2644L120.013 33.7861C120.289 32.9113 120.89 32.026 121.735 31.6059C122.608 31.1989 123.587 31.067 124.539 31.2282C124.615 31.2337 124.69 31.2445 124.764 31.2605C124.704 31.2425 124.717 31.1027 124.735 31.2906C124.74 31.3485 124.759 31.4072 124.766 31.4655C124.802 31.7457 124.801 32.0291 124.764 32.3091C124.692 32.8289 124.504 33.3265 124.214 33.7661C123.959 34.1587 123.63 34.499 123.245 34.7681C123.046 34.9064 122.833 35.0246 122.611 35.1207C122.381 35.2011 122.147 35.2686 121.91 35.323C121.889 35.3294 121.813 35.3304 121.81 35.3374C121.848 35.2643 122.003 35.7098 122.005 35.5334C121.996 35.4808 121.981 35.4294 121.959 35.3805C121.911 35.2166 121.865 35.052 121.82 34.8877C121.732 34.5711 121.647 34.2536 121.558 33.9375C121.407 33.4128 120.576 33.6359 120.726 34.1633Z" fill="#211715"/>
<path d="M158.184 32.3545C157.994 32.5298 156.917 33.5592 156.861 33.5844C156.737 33.6416 156.551 33.4661 156.448 33.3757C156.02 32.982 155.681 32.5035 155.454 31.9717C155.227 31.4398 155.117 30.8667 155.13 30.2899C155.137 29.3073 155.508 28.361 156.175 27.6301C156.234 27.5673 156.311 27.5235 156.396 27.5046C156.48 27.4857 156.569 27.4925 156.649 27.5241C157.481 27.8557 158.612 28.3348 159.427 29.7375C159.844 30.4585 159.987 31.7363 159.829 32.6022C159.824 32.6316 159.813 32.6597 159.796 32.6844C159.779 32.7091 159.757 32.7299 159.731 32.7454C159.705 32.7609 159.676 32.7707 159.646 32.7741C159.616 32.7775 159.585 32.7745 159.556 32.7652C159.088 32.6136 158.421 32.4198 158.184 32.3545Z" fill="#FBDBD9"/>
<path d="M157.88 32.0546C157.655 32.2631 157.434 32.4753 157.211 32.6855C157.089 32.7998 156.968 32.9143 156.845 33.0277C156.777 33.0914 156.623 33.1821 156.583 33.2646C156.634 33.1586 156.887 33.2521 156.841 33.155C156.814 33.1253 156.784 33.0988 156.751 33.0761C156.645 32.9818 156.544 32.8818 156.45 32.7767C156.269 32.5719 156.114 32.3464 155.989 32.1051C155.742 31.6338 155.598 31.1165 155.568 30.587C155.533 30.0399 155.619 29.4919 155.819 28.9803C155.917 28.7338 156.044 28.499 156.196 28.2805C156.264 28.1801 156.339 28.0844 156.42 27.994C156.503 27.9024 156.487 27.9121 156.608 27.9626C157.417 28.3 158.157 28.7279 158.702 29.4243C159.046 29.8592 159.277 30.3701 159.376 30.9127C159.428 31.1901 159.456 31.4714 159.459 31.7535C159.461 31.8945 159.459 32.036 159.449 32.1776C159.445 32.2266 159.442 32.2758 159.436 32.3246C159.434 32.3574 159.43 32.3903 159.425 32.4228C159.401 32.5203 159.412 32.5137 159.458 32.403L159.676 32.3451C159.57 32.3339 159.467 32.306 159.37 32.2627C159.225 32.218 159.08 32.1742 158.935 32.1312C158.723 32.0676 158.511 32.0061 158.297 31.9467C157.763 31.7983 157.535 32.6164 158.068 32.7646C158.361 32.846 158.652 32.9321 158.942 33.0191C159.297 33.1264 159.707 33.3306 160.034 33.0453C160.304 32.81 160.302 32.3952 160.316 32.0637C160.329 31.6956 160.307 31.327 160.252 30.9628C160.144 30.2717 159.877 29.614 159.473 29.0393C159.069 28.4647 158.537 27.9882 157.918 27.646C157.677 27.5097 157.428 27.3881 157.172 27.2819C156.86 27.1498 156.558 27.0012 156.213 27.1188C155.842 27.2461 155.581 27.6464 155.382 27.9596C155.17 28.2971 155.005 28.6608 154.891 29.0411C154.67 29.7846 154.641 30.5707 154.807 31.328C154.973 32.0852 155.329 32.7896 155.842 33.3768C156.094 33.6582 156.452 34.0513 156.869 34.013C157.08 33.9629 157.268 33.8443 157.403 33.6762C157.769 33.339 158.124 32.993 158.489 32.6547C158.893 32.279 158.284 31.6801 157.88 32.0546Z" fill="#211715"/>
<path d="M154.683 47.9422C154.615 48.2473 154.25 50.0133 154.212 50.0771C154.126 50.2192 153.817 50.1685 153.651 50.1469C152.944 50.0408 152.269 49.7889 151.669 49.4076C151.068 49.0263 150.557 48.5243 150.167 47.9345C149.471 46.9185 149.187 45.6815 149.374 44.4691C149.386 44.3893 149.423 44.315 149.479 44.2558C149.535 44.1966 149.608 44.1551 149.687 44.1366C151.198 43.7493 152.8 43.9037 154.206 44.5722C155.157 45.0271 156.12 46.1626 156.551 47.1625C156.561 47.1858 156.565 47.2109 156.565 47.2361C156.564 47.2614 156.558 47.2861 156.546 47.3088C156.535 47.3315 156.519 47.3515 156.499 47.3677C156.48 47.3838 156.457 47.3956 156.432 47.4023C155.852 47.5662 154.981 47.8436 154.683 47.9422Z" fill="#F8B8B4"/>
<path d="M154.268 47.8298C154.189 48.1865 154.116 48.5444 154.04 48.9015C153.997 49.101 153.954 49.3005 153.911 49.4999C153.862 49.6361 153.829 49.7769 153.812 49.92C153.816 50.0896 153.495 49.392 153.97 49.7504C153.924 49.7459 153.877 49.7439 153.83 49.7444C153.698 49.7325 153.568 49.7123 153.44 49.684C153.128 49.6224 152.825 49.5263 152.536 49.3977C151.972 49.141 151.465 48.7799 151.04 48.334C150.576 47.8587 150.222 47.2901 150.003 46.6672C149.783 46.0443 149.704 45.3819 149.769 44.7257C149.787 44.5773 149.77 44.5654 149.859 44.5338C149.955 44.5065 150.053 44.4866 150.152 44.4744C150.423 44.4229 150.698 44.3879 150.974 44.3695C151.588 44.326 152.206 44.3765 152.804 44.5192C153.557 44.6791 154.257 45.0252 154.837 45.5247C155.116 45.7783 155.369 46.0591 155.59 46.363C155.709 46.5264 155.82 46.6957 155.921 46.8702C155.963 46.9423 156.003 47.0153 156.041 47.0891C156.066 47.137 156.09 47.1853 156.113 47.2339C156.157 47.3118 156.161 47.3277 156.126 47.2816L156.185 47.0677C156.273 47.0079 156.27 46.9965 156.178 47.0337C156.141 47.0441 156.105 47.0549 156.068 47.0657C155.992 47.0881 155.916 47.1107 155.84 47.1336C155.672 47.1842 155.504 47.2358 155.336 47.2884C155.079 47.3686 154.823 47.4496 154.568 47.5342C154.046 47.7076 154.27 48.527 154.797 48.3521C155.129 48.2422 155.462 48.1375 155.796 48.034C156.154 47.9239 156.715 47.8705 156.916 47.5212C157.142 47.1264 156.785 46.6293 156.577 46.2954C156.325 45.89 156.03 45.5122 155.697 45.1683C154.444 43.8767 152.534 43.3696 150.758 43.5382C150.398 43.5729 150.039 43.628 149.685 43.7034C149.204 43.805 148.986 44.122 148.924 44.5834C148.811 45.5151 148.954 46.4595 149.34 47.3177C149.689 48.1165 150.225 48.8223 150.905 49.3772C151.585 49.9321 152.388 50.3203 153.25 50.5097C153.647 50.5869 154.206 50.7165 154.516 50.3774C154.64 50.189 154.716 49.973 154.735 49.7489C154.86 49.1852 154.973 48.6188 155.098 48.055C155.217 47.5232 154.386 47.296 154.268 47.8298Z" fill="#211715"/>
<defs>
<filter id="filter0_d_412_100" x="202" y="93" width="252" height="252" filterUnits="userSpaceOnUse" color-interpolation-filters="sRGB">
<feFlood flood-opacity="0" result="BackgroundImageFix"/>
<feColorMatrix in="SourceAlpha" type="matrix" values="0 0 0 0 0 0 0 0 0 0 0 0 0 0 0 0 0 0 127 0" result="hardAlpha"/>
<feOffset dy="13"/>
<feGaussianBlur stdDeviation="13"/>
<feComposite in2="hardAlpha" operator="out"/>
<feColorMatrix type="matrix" values="0 0 0 0 0 0 0 0 0 0 0 0 0 0 0 0 0 0 0.25 0"/>
<feBlend mode="normal" in2="BackgroundImageFix" result="effect1_dropShadow_412_100"/>
<feBlend mode="normal" in="SourceGraphic" in2="effect1_dropShadow_412_100" result="shape"/>
</filter>
</defs>
</svg>
