<?xml version="1.0" encoding="iso-8859-1"?>
<!-- Uploaded to: SVG Repo, www.svgrepo.com, Generator: SVG Repo Mixer Tools -->
<svg fill="#fff" height="800px" width="800px" version="1.1" id="Layer_1" xmlns="http://www.w3.org/2000/svg" xmlns:xlink="http://www.w3.org/1999/xlink" 
	 viewBox="0 0 511.765 511.765" xml:space="preserve">
<g>
	<g>
		<path d="M511.525,279.075c0-1.6,0-3.307-0.427-4.8l-48.107-165.973c-6.933-23.893-26.667-40.64-51.627-43.627
			c-24.96-2.987-48.427,8.533-61.013,30.187l-7.893,13.653c-2.773,5.227-0.747,11.627,4.48,14.4
			c4.907,2.56,10.987,0.96,13.973-3.733l7.893-13.76c9.813-16.96,26.987-21.333,40-19.733c13.013,1.6,28.373,9.813,33.707,28.48
			l35.733,123.52c-58.88-18.453-121.92-18.24-180.693,0.533c-19.947,6.4-32.853,27.2-30.933,49.707h-21.76
			c1.92-22.507-10.987-43.307-30.933-49.707c-58.773-18.773-121.813-18.987-180.693-0.533l35.733-123.413
			c5.333-18.56,21.013-26.88,33.707-28.48c13.013-1.707,30.187,2.667,40,19.627l7.893,13.653c3.2,5.013,9.707,6.4,14.72,3.307
			c4.693-2.987,6.293-9.067,3.733-13.973l-7.893-13.653c-12.587-21.653-35.947-33.28-61.013-30.187
			c-25.067,3.093-44.8,19.733-51.627,43.627L0.378,274.275c-0.427,1.6-0.533,3.2-0.107,4.8c-0.32,3.2-0.32,6.4,0,9.493l5.333,53.547
			c5.227,51.947,41.387,94.187,88.107,102.933c19.093,3.52,38.72,3.52,57.813,0c46.72-8.64,82.88-50.987,88.107-102.933l3.307-32.96
			h25.92l3.307,32.96c5.227,51.947,41.387,94.187,88.107,102.933c19.093,3.52,38.72,3.52,57.813,0
			c46.72-8.64,82.88-50.987,88.107-102.933l5.333-53.547C511.845,285.368,511.845,282.168,511.525,279.075z M223.632,286.435
			l-5.333,53.653c-4.267,42.56-33.387,77.227-70.827,84.16c-16.533,3.093-33.493,3.093-50.027,0
			c-37.44-6.933-66.56-41.6-70.827-84.16l-5.333-53.653c-1.28-12.587,5.653-24.64,16.213-28.053
			c55.253-17.707,114.667-17.707,169.92,0C217.872,261.795,224.805,273.848,223.632,286.435z M490.298,286.435l-5.333,53.653
			c-4.267,42.56-33.387,77.227-70.827,84.16c-16.533,3.093-33.493,3.093-50.027,0c-37.44-6.933-66.56-41.6-70.827-84.16
			l-5.333-53.653c-1.28-12.587,5.76-24.64,16.213-28.053c55.253-17.707,114.667-17.707,169.92,0
			C484.538,261.795,491.472,273.848,490.298,286.435z"/>
	</g>
</g>
</svg>