<svg width="210" height="170" viewBox="0 0 210 170" fill="none" xmlns="http://www.w3.org/2000/svg">
<g clip-path="url(#clip0_407_64)">
<path d="M124.5 160C146.868 160 165 141.868 165 119.5C165 97.1325 146.868 79 124.5 79C102.132 79 84 97.1325 84 119.5C84 141.868 102.132 160 124.5 160Z" fill="#EF5743"/>
<path d="M115.228 125H113.178C113.178 124.773 112.417 123.575 110.895 121.406C109.301 119.12 108.394 117.557 108.172 116.716H108.04C108.178 117.928 108.247 119.023 108.247 120.003C108.247 121.37 108.286 123.035 108.363 125H106.321C106.404 123.285 106.446 121.4 106.446 119.347C106.446 117.327 106.404 115.609 106.321 114.192H108.787C108.787 114.486 109.47 115.656 110.837 117.704C112.292 119.878 113.128 121.353 113.344 122.128H113.468C113.335 120.894 113.269 119.787 113.269 118.808C113.269 117.308 113.23 115.77 113.153 114.192H115.228C115.151 115.565 115.112 117.283 115.112 119.347C115.112 121.428 115.151 123.312 115.228 125ZM127.638 119.397C127.638 121.096 127.118 122.504 126.077 123.622C125.037 124.74 123.75 125.299 122.217 125.299C120.756 125.299 119.533 124.787 118.548 123.763C117.563 122.734 117.071 121.428 117.071 119.845C117.071 118.146 117.591 116.738 118.631 115.62C119.672 114.502 120.958 113.943 122.491 113.943C123.952 113.943 125.175 114.455 126.16 115.479C127.145 116.503 127.638 117.809 127.638 119.397ZM125.347 119.638C125.347 118.481 125.051 117.543 124.458 116.824C123.866 116.104 123.136 115.745 122.267 115.745C121.459 115.745 120.773 116.107 120.208 116.832C119.644 117.557 119.362 118.473 119.362 119.58C119.362 120.731 119.658 121.669 120.25 122.394C120.848 123.113 121.578 123.473 122.441 123.473C123.249 123.473 123.936 123.11 124.5 122.385C125.064 121.655 125.347 120.739 125.347 119.638ZM143.774 114.192C143.774 114.707 143.221 116.533 142.114 119.671C141.007 122.809 140.454 124.585 140.454 125H138.263C138.263 124.563 137.928 123.332 137.258 121.306C136.544 119.137 136.143 117.706 136.055 117.015H135.914C135.825 117.712 135.454 119.153 134.801 121.339C134.193 123.381 133.888 124.602 133.888 125H131.647C131.647 124.48 131.102 122.629 130.012 119.447C128.922 116.265 128.376 114.513 128.376 114.192H131.008C131.008 114.541 131.323 115.93 131.954 118.359C132.585 120.789 132.9 122.23 132.9 122.684H133.033C133.033 122.23 133.371 120.816 134.046 118.442C134.721 116.063 135.059 114.646 135.059 114.192H137.424C137.424 114.607 137.762 116.049 138.437 118.517C139.112 120.98 139.45 122.369 139.45 122.684H139.583C139.583 122.286 139.887 120.933 140.496 118.625C141.11 116.317 141.417 114.84 141.417 114.192H143.774Z" fill="white"/>
<path d="M53.8746 153.168C49.5099 154.896 44.526 152.767 43.2419 148.251C39.4542 134.933 38.966 120.846 41.88 107.222C44.794 93.5978 51.0019 80.9429 59.9062 70.3392C62.925 66.7442 68.344 66.8396 71.6197 70.2022C74.8954 73.5649 74.7761 78.9174 71.8481 82.5867C65.3 90.7927 60.7159 100.436 58.504 110.777C56.2921 121.119 56.5305 131.794 59.149 141.96C60.3198 146.506 58.2392 151.439 53.8746 153.168Z" fill="#5284CE"/>
<path d="M54.1052 96.2567C49.7547 94.4929 47.6206 89.5109 49.81 85.3582C56.2675 73.1098 65.6424 62.5838 77.1582 54.7422C88.6739 46.9006 101.903 42.0345 115.666 40.514C120.332 39.9985 124.185 43.8097 124.232 48.5039C124.279 53.198 120.497 56.987 115.845 57.619C105.443 59.0324 95.4676 62.8416 86.7265 68.7938C77.9855 74.746 70.7863 82.6314 65.6595 91.7929C63.367 95.8895 58.4556 98.0206 54.1052 96.2567Z" fill="#A77C60"/>
<path d="M97.4562 53.6306C95.766 49.251 97.9391 44.286 102.466 43.0415C113.253 40.0755 124.548 39.2608 135.702 40.6764C146.856 42.092 157.589 45.7024 167.294 51.2691C171.366 53.605 172.23 58.9554 169.499 62.7739C166.768 66.5924 161.479 67.4213 157.35 65.188C149.982 61.2031 141.919 58.6019 133.562 57.5411C125.204 56.4804 116.747 56.985 108.617 59.003C104.061 60.134 99.1464 58.0102 97.4562 53.6306Z" fill="#282421"/>
<path d="M15.9099 163.856C11.1253 165.561 5.8301 163.07 4.48219 158.173C0.188923 142.576 -1.04362 126.264 0.886073 110.143C2.81577 94.0224 7.86358 78.462 15.7169 64.3187C18.1825 59.8783 23.916 58.7079 28.1632 61.4932C32.4104 64.2786 33.5568 69.9633 31.1477 74.4347C24.8206 86.1782 20.7405 99.0301 19.1485 112.329C17.5566 125.628 18.4881 139.08 21.8647 151.985C23.1503 156.899 20.6945 162.152 15.9099 163.856Z" fill="#FDB12E"/>
<path d="M20.2323 75.6623C15.6373 73.4984 13.6371 67.999 16.1329 63.5755C25.852 46.3494 39.5447 31.6348 56.1229 20.6882C72.7011 9.74165 91.6111 2.92864 111.27 0.756265C116.319 0.198417 120.59 4.19783 120.776 9.2735C120.961 14.3492 116.987 18.5731 111.947 19.195C95.6628 21.2039 80.0183 26.9508 66.2577 36.037C52.497 45.1231 41.0674 57.2533 32.8243 71.4395C30.2725 75.831 24.8274 77.8262 20.2323 75.6623Z" fill="#9BB6BE"/>
<path d="M93.4473 13.5779C92.0634 8.69097 94.899 3.57211 99.8744 2.55119C117.107 -0.984842 134.928 -0.850423 152.166 2.98776C169.405 6.82595 185.599 14.2652 199.704 24.7785C203.776 27.8139 204.172 33.6523 200.845 37.4904C197.519 41.3285 191.732 41.707 187.622 38.7236C175.851 30.1802 162.429 24.116 148.169 20.941C133.909 17.766 119.182 17.5627 104.899 20.3051C99.9108 21.2627 94.8312 18.4647 93.4473 13.5779Z" fill="#A77C60"/>
</g>
<defs>
<clipPath id="clip0_407_64">
<rect width="250" height="250" fill="white"/>
</clipPath>
</defs>
</svg>
